
            <svg xmlns="http://www.w3.org/2000/svg">
                <filter id="grayscale">
                    <feColorMatrix type="saturate" values="0"/>
                </filter>
                <g filter="url(#grayscale)">
                    <svg xmlns="http://www.w3.org/2000/svg" viewBox="20 136.23538107126564 535 302.52874326751913"> <svg xmlns="http://www.w3.org/2000/svg" viewBox="0.0009329244494438171 0.001766415312886238 374.8638000488281 325.8282165527344" height="100.82597923068002" width="115.999818206803" y="206.23538107126564" x="229.49650793995514" preserveAspectRatio="xMinYMin" style="overflow: visible;"><path id="Layer_1-2" dataName="Layer 1" d="M216.29,178.43c-5.6.17-8.62-3.15-11.08-7.09A31.36,31.36,0,0,1,200.69,157c-.52-6.69-.8-13.4-1.16-20.1a3.74,3.74,0,0,1,.25-1,1.69,1.69,0,0,1,2.39-.43,19.78,19.78,0,0,1,3.1,2.2c6.38,5.56,11.91,11.73,14.29,20.12a33.39,33.39,0,0,1,.8,3.7c.27,1.61.45,3.22.71,5.07-.55,3.15-1.2,6.53-3,9.55,2.24,6.2,3.53,12.59,6.2,19.66.15-2.15.3-3.28.3-4.42A142.5,142.5,0,0,1,226.6,168c.06-.36.06-.72.09-1.08.45-5.78.63-11.6,1.44-17.33.66-4.66.52-9.41,1.68-14a6.48,6.48,0,0,0,.11-2.7c-1-5.31-2-10.66-3.53-15.86-1-3.28-1.92-6.57-2.82-9.68a5,5,0,0,0-1.19-.58c-6.46-.75-9.55-5.32-12-10.6-1.54-3.32-2.18-6.9-3.11-10.4-2.3-8.68-2.38-17.56-2.16-26.46a2.38,2.38,0,0,1,1.2-2.28c1.43-.15,2.31.87,3.25,1.65a68,68,0,0,1,14.8,17.34A31.49,31.49,0,0,1,229,92.61a26.37,26.37,0,0,1-3.29,12.17c1.06,6.32,3.46,12.48,4.92,19.23a21,21,0,0,0,1.68-7.2c.43-4.49,1.16-9,1.76-13.44.08-.54.24-1.06.29-1.6.45-5.24.82-10.48,1.33-15.7.47-4.86,1.13-9.7,1.6-14.56.3-3.06.41-6.14.6-9.21C233,56,231.92,48.62,232.57,41.12a59.9,59.9,0,0,1,3.14-14.83q4.17-11.79,8.34-23.56c.36-1,.61-2.11,2.19-2.26a5.75,5.75,0,0,1,1.14,1.63,113.76,113.76,0,0,1,3.73,15.27,152.76,152.76,0,0,1,1,16.81c.23,7.27-1.94,13.94-4.83,20.45a12.37,12.37,0,0,1-3.38,4.23c-1.08,1-2.27,1.8-3.42,2.7-.68,1.16-.47,2.46-.54,3.71a186,186,0,0,1-2,20,9.81,9.81,0,0,0-.08,1.09,75.38,75.38,0,0,1-1,11.9,19.69,19.69,0,0,0,0,3.85c2.51-1.83,5.05-4.84,10.51-12.43.1-3,.12-6.28,1.35-9.41,2.48-6.33,6.45-11.34,12.49-14.53,3.84-2,7.69-4.07,12.07-4.84a22,22,0,0,0,4-1.57c1.14-.45,2.3-.87,3.39-1.28.34.53.67.82.71,1.13A29.11,29.11,0,0,1,279,74.56,43.3,43.3,0,0,1,267.22,90a11.44,11.44,0,0,1-7,2.7c-3.26.19-6.55.26-9.63-.91a9,9,0,0,0-4.28,3.27c-3.51,4.62-7.15,9.15-10.47,13.36-1.56,7.91-1.94,15.52-3.33,23-.82,4.44-.76,9-1.49,13.5-.81,5-.6,10.12-1.68,15.09a28.25,28.25,0,0,0-.24,3.81c-.23,2.88-.08,5.8-1,8.63-.25.82,0,1.77,0,3.73,4.14-8.53,6.85-16.59,11.35-23.7-1.61-6.9.32-13.1,3.22-19a60.09,60.09,0,0,1,5.81-9.2,32.05,32.05,0,0,1,10.26-8.82c2.85-1.59,5.69-3.2,8.56-4.76a7.29,7.29,0,0,1,1.75-.39,15.86,15.86,0,0,1,0,8.64,73.69,73.69,0,0,1-6.42,17.85c-3.13,5.94-7.87,10.37-13.23,14.23-2.16,1.56-4.71,1.72-7.27,1.79-2.86,3.72-4.6,7.93-6.44,12-2.6,5.78-4.85,11.72-7.32,17.56a19.83,19.83,0,0,0-1.66,7.91c0,2.73,0,5.45-.08,8.18-.07,3.44.14,6.87-.64,10.3a27,27,0,0,0-.18,6q0,13.37.07,26.73c0,2-.18,4,1.52,5.94A405.76,405.76,0,0,1,243.28,205c-.13-3.48-.27-6.56-.35-9.65a28.56,28.56,0,0,1,1.91-11.17,40.1,40.1,0,0,1,9.56-15c1.44-1.38,2.87-2.79,4.43-4a92.54,92.54,0,0,0,9.2-8.51,3,3,0,0,1,2.45-1.29,43.74,43.74,0,0,1-.21,10.86c-.82,5.53-1.9,11.05-3.19,16.49a32.81,32.81,0,0,1-6.57,13.6c-3.37,4.06-7.38,6.9-12.65,7.81a9.76,9.76,0,0,0-1.73.69c-2,3.7-3.33,7.84-5.07,11.8-4.73,10.8-8.05,22.11-11.95,33.21a5.87,5.87,0,0,1-.26,1.06c-2.36,3.94-2.23,8.27-2.21,12.65.1,15.46.09,30.91.14,46.36,0,2.91.14,5.82.21,8.73a4,4,0,0,1-.42,2.59,1.1,1.1,0,0,1-1.55-1,48.93,48.93,0,0,1-.46-5.41c-.08-2.73-.12-5.46,0-8.18.24-6.19-.79-12.21-1.73-18.3-2.54-16.37-7.76-31.95-12.93-47.74-2-1.11-4.38-1.65-6.08-3.41a42.46,42.46,0,0,1-4.4-5.54c-.2-.3-.43-.58-.61-.9-3.33-6-6.49-12.14-8.19-18.91-1.42-5.61-3.11-11.15-4.72-16.72a3.36,3.36,0,0,1-.06-2.64,1.71,1.71,0,0,1,2.4-.31c1.55.94,3.06,2,4.53,3a67.62,67.62,0,0,1,18.77,20.92c2.26,3.81,3.29,8,4.18,12.29a8.65,8.65,0,0,1-2.21,8.08c-.61.65-1.21,1.32-1.78,1.95,1.49,4.62,3,9.08,4.38,13.57s2.76,9,4.11,13.5,1.95,9,3.94,13.19A30.61,30.61,0,0,0,224,270a24.87,24.87,0,0,1-.24-4.89c-.06-16.36-.22-32.72-.11-49.09a80.45,80.45,0,0,0-2.16-18.82c-.53-2.29-1-4.61-1.6-6.87C218.84,186.48,217.61,182.7,216.29,178.43Zm46.64-61.61a3.15,3.15,0,0,0-2.57.51,35.74,35.74,0,0,0-10.16,8.79,45.5,45.5,0,0,0-8.87,18.93c-.12.59-.39,1.34.82,1.91,1.35-2.05,2.64-4.2,3.88-6.37a132.94,132.94,0,0,1,12.54-18.31c1.48-1.81,2.81-3.73,4.2-5.6l.43-.39Zm0,49.05a4.89,4.89,0,0,0-1.46.46c-8.26,5.74-13.35,13.68-15.81,23.32a21.67,21.67,0,0,0-.08,8.76c.45-.41.79-.59.93-.87,4.81-9.95,10-19.72,15.59-29.25a3.45,3.45,0,0,0,.72-2.53c.35-.15,1.22,0,.46-.78Zm-67.72,34.88-.5-.83c-.09.13-.28.3-.25.4.13.4.45.5.86.31-.47,1.2.31,2.05.81,3a241.42,241.42,0,0,1,13,27.91c.5,1.31.8,2.74,2.06,3.78,1.74-1.54,2.81-3.45,2.36-5.73-.86-4.42-1.94-8.81-4.32-12.71a66,66,0,0,0-11.81-14.75C196.75,201.53,196.19,200.75,195.17,200.75ZM210.43,63.33l-.35-.46.49.31c-.48,1.76.5,3.18,1.14,4.63C213.1,71,214.78,74,216,77.15c2.64,6.9,5.09,13.87,7.57,20.83.32.89.59,1.7,1.66,1.93,1.07-3.07,1.91-6.24,1.41-9.5-.77-5-2.1-9.89-5-14.17a84.84,84.84,0,0,0-9.46-11.84C211.72,63.89,211.27,63.28,210.43,63.33Zm68.56.82c-7.1,4.64-22.82,19.35-26.85,25a2.11,2.11,0,0,0,1.77,1.1c1.8.19,3.61.27,5.41.3a9.55,9.55,0,0,0,6.46-2.42,38.15,38.15,0,0,0,11.8-16.63C278.34,69.35,279.35,67.15,279,64.15ZM245.9,9c-.85,6.74-1.85,13.5-2.52,20.3s-1.36,13.28-2,19.92c-.27,2.67,0,5.39,0,8.22a5.52,5.52,0,0,0,3.43-3.22c2.64-5.57,4.79-11.29,5.1-17.56a101,101,0,0,0-2.54-26.9C247.16,9.24,246.68,9,245.9,9ZM267.75,164a4.43,4.43,0,0,0-1.73,2c-1.09,2.08-2.22,4.14-3.41,6.17-5.21,8.92-10,18.06-14.35,27.41-.28.61-.84,1.25.05,2a15.32,15.32,0,0,0,7.51-3.89A26.7,26.7,0,0,0,263.59,186c2.42-7,3.54-14.3,4.4-21.64C268,164.24,267.83,164.09,267.75,164ZM207.5,65.33c-.08,1.31-.12,2-.17,2.75-.22,3.1.52,6.12.86,9.17a73.37,73.37,0,0,0,4.36,17.88,18.28,18.28,0,0,0,4.88,7.12,5.71,5.71,0,0,0,4.71,1.71c.64-1.22.19-2.25-.17-3.27-1.61-4.61-3.38-9.18-4.85-13.84a132.13,132.13,0,0,0-8-19C208.72,67.13,208.23,66.48,207.5,65.33Zm36,84.93a6.22,6.22,0,0,0,4.91-1.43c5.32-3.89,10-8.4,12.86-14.49a63.93,63.93,0,0,0,4.9-13.76c.25-1.16,1.39-2.26.52-3.6C260.49,122,249,139,243.47,150.26ZM190,198.92a5.94,5.94,0,0,0-.07,1.7c1,4,2,8,3.29,12,2.26,6.87,5,13.52,9.36,19.4a17.92,17.92,0,0,0,4,4.33c.39.28,1,.54,1.38-.13C205.14,226.19,195.45,206.09,190,198.92ZM274.62,63.67a3,3,0,0,0-2.78-.06,50.82,50.82,0,0,0-10.37,4.72C255,72.14,251.29,78,249.82,85.25c-.09.44.21,1,.39,1.75,2-2.2,3.8-4.26,5.73-6.16s4.27-3.94,6.41-5.9,4-3.67,6-5.55S273,66.18,274.62,63.67ZM241.81,16.25c-3.09,8.4-5.58,16.16-6.71,24.41-.78,5.65.42,10.74,2.1,15.91.12.38.76.6,1.43,1.1.12-2.43.23-4.6.33-6.76.07-1.45,0-2.91.17-4.35.59-5.39,1.26-10.77,1.87-16.15a61.87,61.87,0,0,1,.73-6.47A17.89,17.89,0,0,0,241.81,16.25ZM216.38,171.77a1.44,1.44,0,0,0,1.48-1.24,26.58,26.58,0,0,0-.29-11.3c-2-7.47-6.69-13.12-12.16-18.26-.14-.13-.61.07-1,.13Q210.4,156.46,216.38,171.77ZM214.75,175c-2.24-7.35-9.37-25.35-11.92-29.84,0,2.66-.14,4.81-.11,7a32,32,0,0,0,.39,6c.85,4.07,1.76,8.13,4,11.76a15.44,15.44,0,0,0,5.19,5.46A1.81,1.81,0,0,0,214.75,175Z" style="fill: #000; fill-opacity: 1;"></path><path id="Layer_1-2" dataName="Layer 1" d="M152.78,320.72c-3.14,2.8-6.11,2.14-8.84,2.17-2.24-1-2.81-3.06-3.09-5-1-6.62-2.45-13.18-2.44-19.93,0-7.25-1.18-14.44-1-21.72s0-14.54,0-21.81q-.08-13.63-.17-27.27a13,13,0,0,0-.08-2.72c-1.11-4.66-.62-9.4-.73-14.1-.11-4.91-.09-9.82-.3-14.72-.12-2.71-.57-5.39-.9-8.09s-.28-5.39-.69-8.11c-.82-5.57-.64-11.23-.49-16.87a4.73,4.73,0,0,1,2.89-4.29c1.3-.62,2.69-1,4-1.53.36-2.07-.83-3.76-1.32-5.62s-1-3.84-1.72-5.71c-1.13-3.06-2.05-6.19-3.08-9.27-1.84-5.49-4.15-10.82-6.24-16.22-4.37-11.32-8.76-22.62-12.2-34.27a142.34,142.34,0,0,1-4.27-19c-.59-3.93-1.54-7.83-1.83-11.77a59.51,59.51,0,0,1,1.49-19.43,46.74,46.74,0,0,1,6.7-15.34,25.76,25.76,0,0,1,10.15-8.81c1.8-.86,3.62-1.69,5.48-2.41a22.75,22.75,0,0,1,14.91-.4,34,34,0,0,1,13.21,7.28c3.66,3.2,5.92,7.31,7.7,11.72,1.71,4.22,2.45,8.7,3.35,13.13,1.67,8.25,1.38,16.6,1.19,25-.11,5.12-1.5,10-2.71,14.93-2.38,9.65-4.77,19.31-8.08,28.71-.72,2-1.13,4.19-1.72,6.28-2.59,9.25-6,18.25-9.23,27.26-1.35,3.73-3.28,7.26-4.94,10.88-.29.64-.57,1.29-.78,1.77.34,1.38,1.22,1.43,2.16,1.42,1.27,0,2.34-1.16,4.13-.36a3.86,3.86,0,0,1,1.24,2.44,74.09,74.09,0,0,1,1.21,9.13c.66,16.53.17,33.07.05,49.61,0,4.53.12,9.08-.75,13.58a18.59,18.59,0,0,0-.09,3.26c-.1,9.64-.17,19.27-.29,28.9,0,3.63.29,7.27-.67,10.84a11.7,11.7,0,0,0-.11,2.72c-.11,7.82-.1,15.64-.35,23.45-.16,5.06-.59,10.13-1.12,15.17C152.27,317.31,152,319.05,152.78,320.72ZM132,13.16c-1-.15-1.94-.37-2.41.86a5.62,5.62,0,0,0-1.56.32,21.25,21.25,0,0,0-7.16,6.54c-5.68,7.74-7.8,16.63-8.43,26-.42,6.18.89,12.23,1.84,18.31a154.35,154.35,0,0,0,5.27,22.67c3.33,10.53,7.23,20.85,11.24,31.12,2,5.23,4.37,10.37,6,15.71,1.61,5.19,3.58,10.22,5.45,15.7a6.71,6.71,0,0,0-.14-4.43c-3.58-12.13-7.06-24.29-10.58-36.43-3.48-12-6.68-24-8.59-36.37-.45-2.85-1.25-5.64-1.69-8.49-.55-3.57-.89-7.18-1.32-10.77-.33-2.69,0-5.43-.84-8.1a6,6,0,0,1,0-3.23c.6-2.13.52-4.31.84-6.46,1.16-7.83,3.34-15.22,9.45-20.82a2.83,2.83,0,0,0,.45-.94c.92,0,1.72-.25,2-1.28l.9-.34-.52-.34Zm19.5,3.24c-.14-.33.13-1.25-.74-.51l.85.4a7.35,7.35,0,0,0,.34,2.07c3.28,6.92,5.92,14,6.35,21.75,1.28,3.26.42,6.88,1.74,10.13.11,5.08,1.51,10,1.3,15.14-.15,3.63-.07,7.27-.11,10.9a16.06,16.06,0,0,1-.16,3.26c-1.08,4.78-.74,9.73-1.83,14.52-.68,3-.84,6.1-1.56,9.08-3.34,13.87-6.79,27.71-10.2,41.57a2.44,2.44,0,0,0,.33,2.2c.47-1,1-2,1.34-3,3.35-10.31,6.88-20.57,9.94-31a155.17,155.17,0,0,0,4.67-21.72,160.12,160.12,0,0,0,1.8-23.25c0-2.73-.57-5.4-.72-8.08a160.39,160.39,0,0,0-3.51-23.59,62,62,0,0,0-6.77-17.1C153.94,18,153.24,16.53,151.52,16.4Zm-8.59,295.68-.18-.2c0,2.55-.06,5.1,1.12,7.46a7.57,7.57,0,0,0,.89,1.21c1.54.15,3,.44,4.26-.5a46.92,46.92,0,0,0,1.59-14,7.49,7.49,0,0,1,.09-2.17c1-3.75.63-7.58.72-11.38.15-6.18.18-12.36.28-18.53a14.85,14.85,0,0,1,.24-3.79,23.71,23.71,0,0,0,.53-6.49q.19-18,.34-36a17.24,17.24,0,0,1,.13-3.81c.89-3.58.62-7.22.67-10.84s.12-7.26.12-10.9c0-10.9,0-21.8-.14-32.7a58.7,58.7,0,0,0-1.44-10c-9.76-.9-11.25-.69-15.34,2.07a6.93,6.93,0,0,0-.59,3.72c.1,4-.19,8.06.48,12,.89,5.2.21,10.52,1.64,15.64.47,10.14.33,20.31,1,30.46.55,8.51.3,17.07.34,25.61.08,15.43-.31,30.87.95,46.28.42,5.24.86,10.47,1.36,15.7C142,311.31,142.6,311.68,142.93,312.08Zm5-179.55c1.08-4.37,2.24-8.72,3.24-13.1,2.26-9.85,5.14-19.55,6.15-29.7.77-7.74,1.95-15.43,1.74-23.24a64.47,64.47,0,0,0-.2-6.53c-.87-6.62-2.1-13.19-2.81-19.83-.9-8.45-3.85-16.14-7.76-23.56a12.15,12.15,0,0,0-3.51-4.09,1.12,1.12,0,0,0-1.52,0,69.83,69.83,0,0,1,1.54,8.36c.52,7.41.87,14.84,1.11,22.26.22,6.9.21,13.8.31,20.7a28.09,28.09,0,0,0,.17,5.44c.91,4.14.58,8.31.63,12.47.06,4.36-.06,8.72.05,13.08.21,8.33-.21,16.69.9,25a7.7,7.7,0,0,1-.08,2.71C147.13,125.71,147.45,129,148,132.53ZM135.76,19.81a5.87,5.87,0,0,0-1,1.2,49.67,49.67,0,0,0-4.8,20.41c-.31,8.67-.71,17.36.83,26,1,5.68,1.63,11.44,2.77,17.1,1.68,8.38,3.66,16.7,5.52,25a9.25,9.25,0,0,0,.24-4.82c-.86-2.67-.58-5.38-.81-8.06-.33-4-.84-7.92-.9-11.88-.21-14-.26-27.93-.39-41.89a19.35,19.35,0,0,0-.25-4.32,28.4,28.4,0,0,1-.48-6c-.06-3.44,0-6.89-.08-10.33C136.35,21.47,136.6,20.55,135.76,19.81Zm4.34-6.27c-1.41,5.74-2.17,13.36-1.26,18.19a45.23,45.23,0,0,1,.57,8.11c.05,5.27.09,10.53,0,15.8-.21,14.33.66,28.63,1.37,42.94a14.87,14.87,0,0,0,.11,1.63c.59,4.47,1.34,8.93,1.75,13.42.6,6.48.95,13,1.45,19.49.06.83-.37,1.82.74,2.71.1-2.59.29-4.94.28-7.28,0-8.35-.33-16.71-.17-25.05s-1.09-16.63-.21-25a4.45,4.45,0,0,0-.15-1.62,23.61,23.61,0,0,1-.51-6.49c-.12-7.08-.18-14.16-.28-21.24a18.42,18.42,0,0,0-.19-4.34c-.79-3-.57-6.12-.63-9.19s-.17-6.17-.13-9.26c0-3.65-.75-7.19-1.28-10.76A2.42,2.42,0,0,0,140.1,13.54ZM135,15c-5.2,2.81-6.37,4-8.64,8.13A40.19,40.19,0,0,0,122,39.76c-.7,10.4,1,20.6,2.76,30.78.41,2.32.78,4.64,1.29,6.93q1.81,8.2,3.74,16.39c2.55,10.91,5.87,21.59,9.44,33.1a16,16,0,0,0,.16-2.94c-.43-2.49-.94-5-1.45-7.44Q136,107.3,134,98c-1.72-8.14-3.58-16.24-4.77-24.49-.77-5.37-1.82-10.71-1.8-16.16,0-6.18,0-12.36.26-18.54A44.34,44.34,0,0,1,130.86,24C132,21.19,133.4,18.46,135,15Zm32,72.58.56.12c1.08-4.56,2.26-9.1,3.22-13.68a61.76,61.76,0,0,0,1.56-11.28,101.26,101.26,0,0,0-2.09-25.39,65.59,65.59,0,0,0-3.34-10.86c-2.67-6.31-7.32-10.71-13.33-13.8a1.43,1.43,0,0,0-1.68-.08c1.66,1.86,3.76,3.35,4.91,5.56,2.84,5.47,5.43,11.07,6.74,17.15,1,4.77,1.84,9.57,2.49,14.42,1,7.19,2,14.34,1.78,21.61-.11,4.17.25,8.34-.78,12.47A16.26,16.26,0,0,0,167,87.53Z" style="fill: #000; fill-opacity: 1;"></path><path id="Layer_1-2" dataName="Layer 1" d="M296.64,7.47a6.81,6.81,0,0,1,3.62-3.12C305.4,2.58,310.48.67,316.09.91c2,.08,4-.49,5.93-.63a139.73,139.73,0,0,1,18.53.06c2,.13,4,.56,5.94.59a79.08,79.08,0,0,1,18.74,2.81c1.4.36,2.87.43,4.27.78,2.4.6,4.2,1.71,4.85,4.48a16.37,16.37,0,0,1,.35,6.39c-.83,5.6-2.95,10.82-4.45,16.21-2.17,7.85-4.64,15.61-7,23.4-.53,1.73-1.14,3.43-1.81,5.11a18.42,18.42,0,0,1-6.69,8.41c-1.93,1.35-3.8,2.79-5.79,4.25a24.19,24.19,0,0,0-3.24,7.91c-1.08,4.77-1.71,9.6-2.36,14.44-1.48,11-.93,22.11-1,33.17-.09,24.72.53,49.45-.16,74.16-.1,3.26-.41,6.51-.66,9.76-.42,5.29.59,10.5,1,15.73,1.17,14.69,1.11,29.39,1.16,44.1,0,2.35-.17,4.72.59,7a5.79,5.79,0,0,1,.14,1.62c.1,11.09.7,22.17.33,33.26a14,14,0,0,1-1.49,6.29,4.79,4.79,0,0,1-2.82,2.36c-2.13.45-4.41-1.53-6.42-.79-1.77-1-2.45-2-2.53-3.38-.31-5.24-1-10.44-.95-15.73.09-10.72-.13-21.45-.25-32.17a27.27,27.27,0,0,0-.49-6,20.75,20.75,0,0,1-.28-4.33c-.1-8.18-.12-16.36-.26-24.54-.1-5.44.27-10.89-.72-16.31a35,35,0,0,1-.14-6q-.14-40.64-.27-81.26c0-2,.26-4-.46-5.94a4.54,4.54,0,0,1-.14-2.14,57,57,0,0,0-.11-18.39,14.54,14.54,0,0,1-.11-2.72c.16-6-.73-11.95-1.36-17.89-.72-6.81-3.58-12.64-9.69-16.18A18.7,18.7,0,0,1,308,58.53c-3.08-8.5-6.61-16.87-8.48-25.77-1.53-7.26-3.24-14.5-3-22C296.49,9.67,296.57,8.59,296.64,7.47ZM299,8c-.11,1-.21,1.77-.24,2.48a58.64,58.64,0,0,0,1.16,11.88,121.69,121.69,0,0,0,4.8,20c1.32,3.75,2.62,7.52,4,11.25.75,2,1.64,4,2.44,6a14.36,14.36,0,0,0,5.54,6.56c.45.31,1,.53,1.4.85,4.83,3.55,8.25,8,9.6,14,.75,3.39.34,6.91,1.58,10.18-.11,8.17,1.41,16.27,1.18,24.45-.07,2.36-.07,4.73-.06,7.09,0,.87-.18,1.83.95,2.58,2.46,0,5.14.42,7.81-.27a34.36,34.36,0,0,0,1-7.17c0-8.7,0-17.4,1.15-26.07a96.81,96.81,0,0,1,2.54-13.31c1.14-4,2.75-7.92,6.86-10a24.56,24.56,0,0,0,3.07-2.24,14.85,14.85,0,0,0,5.1-6.27A56.11,56.11,0,0,0,361,54.43c3.45-11.43,6.8-22.9,10.27-34.32,1.2-3.94.92-7.84.49-11.73a12.35,12.35,0,0,0-1.51-1,10.75,10.75,0,0,0-2.05-.69c-1.24-.26-2.52-.35-3.74-.67a81,81,0,0,0-19.28-2.85,86,86,0,0,1-10.86-.63,30.13,30.13,0,0,0-8.16,0,68.21,68.21,0,0,1-9.77.63,31.43,31.43,0,0,0-8.57,1.25C304.85,5.27,301.8,5.93,299,8ZM340.7,319.35c1.64-1.77,1.8-4,1.82-6.13q.06-8.72,0-17.44a82.09,82.09,0,0,0-.39-10.88,93.93,93.93,0,0,1-.6-10.31c-.4-12.51.38-25-1-37.55-.56-5.2,0-10.52-1.17-15.7,0-8.18-.14-16.36.21-24.53.13-3.05.57-6.13.57-9.21q0-28.33,0-56.69a2.69,2.69,0,0,0-.71-2.15c-2.75-1.48-5.71-1-8.77-.52-.07,1-.17,1.7-.17,2.42,0,14.53,0,29.07.14,43.61s-.17,29,.65,43.56c.86,15.22.29,30.49,1.14,45.73.6,10.88.32,21.8.44,32.7a18.56,18.56,0,0,0,.15,3.81,39,39,0,0,1,.59,10.29c-.06,2,.07,4,.12,6a3.4,3.4,0,0,0,1.49,3.11C336.83,319.53,338.77,320.18,340.7,319.35Z" style="fill: #000; fill-opacity: 1;"></path><path id="Layer_1-2" dataName="Layer 1" d="M59.68,323.37c-1.52,1.94-3.31,1.84-4.84,2.46l-4.73-.8A3.28,3.28,0,0,1,48,322.62a24.07,24.07,0,0,1-.27-3.79q.09-24.81.21-49.62,0-6.82.18-13.64c0-1.62.23-3.25.35-4.87a8.82,8.82,0,0,0,.14-2.16c-.94-4.86-.53-9.78-.57-14.67-.14-17.27-.19-34.54-.28-51.81a26.53,26.53,0,0,0-.49-5.95,22.64,22.64,0,0,1-.33-4.88c-.12-7.45-.1-14.9-.32-22.35-.26-8.71-.66-17.41-1.13-26.11a75.55,75.55,0,0,0-1.15-7.52c-2.42-3.33-5.93-5.38-9-7.93-4.31-3.61-8.86-6.94-13.17-10.55-11.31-9.44-18-21.64-21-35.93A72.66,72.66,0,0,1,.1,52.78c-.4-4,.48-8,1.41-11.82A43.62,43.62,0,0,1,13.57,19.4c2.88-2.78,5.68-5.62,9.12-7.74A40.21,40.21,0,0,1,42.14,5.39c2.54-.12,5.08-.14,7.62-.19A25.85,25.85,0,0,1,60.32,7.42c2.84,1.2,5.62,2.55,8.33,4a28,28,0,0,1,9.17,8.4A57.84,57.84,0,0,1,88.51,45.1a72.73,72.73,0,0,1,.68,15.72,45.82,45.82,0,0,1-1.47,8c-.84,3.52-1.74,7-2.84,10.48a33.91,33.91,0,0,1-2.7,5.92,156.72,156.72,0,0,1-10.86,17,114.2,114.2,0,0,1-8.43,10A10.82,10.82,0,0,0,59.77,120c.07,7.09,0,14.18,0,21.27a42.77,42.77,0,0,1-.56,8.13,43.74,43.74,0,0,0-.3,7.61c-.07,6.91-.16,13.81-.14,20.72.06,15.63.13,31.26.29,46.89.07,6.35.5,12.69.58,19,.19,14.54.26,29.08.42,43.62,0,3.62.32,7.24.56,10.85.38,5.77.86,11.61-.28,17.37-.29,1.48.73,2.79.15,4.29A23.46,23.46,0,0,0,59.68,323.37ZM57,127.5c.27-.82.55-1.2.46-1.47-1-3.45.25-6.8.46-10.18A7.69,7.69,0,0,1,59.86,112c2.25-2.84,4.7-5.52,7-8.3a46.66,46.66,0,0,0,3-3.84c2.54-3.76,4.89-7.65,7.52-11.34,5.08-7.15,7-15.43,8.66-23.78a42.46,42.46,0,0,0,1.06-7.51,70,70,0,0,0-2.27-17.72C83.12,32.19,79.34,25.8,74.8,19.85c-3.77-5-9.16-7.61-14.69-10A29,29,0,0,0,49,7.46c-7.33-.08-14.54.66-21.13,4.11-12.74,6.67-21,17-24.42,31.05a74.84,74.84,0,0,0-1.15,9.14C3.49,55.41,3.2,59.27,4.16,63,7.64,76.45,14.4,87.67,25.44,96.25c5.58,4.34,11,8.88,16.62,13.21,3.85,3,6.07,6.63,5.75,11.63a34.79,34.79,0,0,0,.07,3.82c0,.88-.06,1.83.95,2.59Zm.48,194.91c.4-4.25.81-8.2,1.12-12.15a14.7,14.7,0,0,0-.31-2.69c-.12-1.07-.27-2.15-.3-3.23-.48-18.51-.21-37-1-55.55-.71-17.42-.22-34.88-.29-52.33-.05-11.81-.29-23.62-.16-35.43.08-6.71-.19-13.44.9-20.11a29.14,29.14,0,0,0,.09-5.45c0-1.77.36-3.6-.47-5.44a24.77,24.77,0,0,0-8,.17c-1,2.13-1,2.32-.93,3.13.23,2,.62,3.95.69,5.93.39,12.33-.17,24.68,1.09,37,.4,4,.19,8,.23,12,0,5.08.05,10.17.07,15.26,0,4.91-.2,9.83.15,14.72.36,5.07-.2,10.11,0,15.17,0,.72-.08,1.47,0,2.18,1.11,7.22.56,14.49.62,21.75a13.11,13.11,0,0,1-.13,3.26,36.58,36.58,0,0,0-.63,8.67q-.15,23.43-.26,46.86c0,1.27,0,2.54,0,3.81a3.34,3.34,0,0,0,1,2.75C52.89,323,55,323.49,57.49,322.41Z" style="fill: #000; fill-opacity: 1;"></path><path id="Layer_1-2" dataName="Layer 1" d="M142.93,312.08c-.16-2.72-.46-5.47,1.91-7.55a4,4,0,0,1,1-.33c2.13,0,3.18.86,3.37,2.63a7.86,7.86,0,0,1-1.73,5.53,2.05,2.05,0,0,1-2.42.73,17.76,17.76,0,0,1-2.33-1.21Zm3.62-5.14a2.05,2.05,0,0,0-1.3,2,.78.78,0,0,0,.26.44.41.41,0,0,0,.37,0C146.74,308.77,147.39,308.06,146.55,306.94Z" style="fill: #000; fill-opacity: 1;"></path><path id="Layer_1-2" dataName="Layer 1" d="M338.6,301.23a7.56,7.56,0,0,1,2.59,3.86c.26,1.8-.63,3.22-1.3,4.68a2.63,2.63,0,0,1-2.78,1.24,2.87,2.87,0,0,1-2.25-2.09,11.16,11.16,0,0,1,.29-5.88C335.72,301.61,336.76,300.61,338.6,301.23Zm-1.14,7.12a2.78,2.78,0,0,0,1.23-2.23c.1-.78-.21-1.72-1.44-1.35A3.58,3.58,0,0,0,337.46,308.35Z" style="fill: #000; fill-opacity: 1;"></path><path id="Layer_1-2" dataName="Layer 1" d="M55.17,32.82a3.28,3.28,0,0,1,2.44,2.24,4.13,4.13,0,0,1-1.76,4.7,2.77,2.77,0,0,1-3.47-.17,3.41,3.41,0,0,1-1.14-3.4,4.32,4.32,0,0,1,3.09-3.37A7.28,7.28,0,0,1,55.17,32.82Zm-.06,3.62c-.15-.38-.44-.53-.78-.31s-.32.4-.48.62c.27.1.55.32.8.29S55,36.65,55.11,36.44Z" style="fill: #000; fill-opacity: 1;"></path><path id="Layer_1-2" dataName="Layer 1" d="M74.11,41.57a16.55,16.55,0,0,1,1.7.7c3,1.67,3.26,3.71.89,6a2.87,2.87,0,0,1-4.28-.45,5.45,5.45,0,0,1-.6-3.67C71.94,42.92,72.74,42.24,74.11,41.57Zm.6,3.25c-.7.53-.61,1.06,0,1.6C75.27,45.9,75.42,45.37,74.71,44.82Z" style="fill: #000; fill-opacity: 1;"></path><path id="Layer_1-2" dataName="Layer 1" d="M44.79,36.78c-2.12-.63-3.43-1.66-3.52-3.81a2.92,2.92,0,0,1,3.38-3.22A4.14,4.14,0,0,1,45.7,30c.65.29,1.27.62,1.69.83a3.78,3.78,0,0,1,.45,3.36C47.44,35.55,46.26,36.1,44.79,36.78Zm-.85-3.71c.18.22.34.6.52.61s.6-.2.9-.32c-.17-.21-.32-.59-.49-.6S44.27,33,43.94,33.07Z" style="fill: #000; fill-opacity: 1;"></path><path id="Layer_1-2" dataName="Layer 1" d="M62,33.5c-1.56-.52-2.89-1.41-3-3.25-.14-2.06,1.12-3.24,3.13-4.1l3,1.37,1,2.18C65.6,32,64.34,33.3,62,33.5Zm1-3.38c-.18-.23-.34-.65-.52-.66s-.61.24-.92.39a3.09,3.09,0,0,0,.57.62C62.48,30.69,62.8,30.54,63,30.12Z" style="fill: #000; fill-opacity: 1;"></path><path id="Layer_1-2" dataName="Layer 1" d="M52.81,21.93a4.36,4.36,0,0,1,2.62,4.66,3,3,0,0,1-3.26,2.85,3.08,3.08,0,0,1-3.06-3.07,4.23,4.23,0,0,1,.86-3A3,3,0,0,1,52.81,21.93Zm.14,4c-.19-.22-.37-.63-.56-.63a1,1,0,0,0-.85.44c-.1.26.07.91.23.94A1,1,0,0,0,53,25.89Z" style="fill: #000; fill-opacity: 1;"></path><path id="Layer_1-2" dataName="Layer 1" d="M47.85,60.17a21.84,21.84,0,0,1,2.06.85c2.83,1.55,3,3.63.44,5.82a5.67,5.67,0,0,1-1.08.54A3.86,3.86,0,0,1,45.78,64C45.49,62.47,45.9,61.17,47.85,60.17Zm1.7,3.68a4.75,4.75,0,0,0-.88-.35c-.09,0-.24.22-.36.34.12.11.26.34.35.33A5.55,5.55,0,0,0,49.55,63.85Z" style="fill: #000; fill-opacity: 1;"></path><path id="Layer_1-2" dataName="Layer 1" d="M48.27,86.66l1-2.26a4.41,4.41,0,0,1,4-.36,3.05,3.05,0,0,1,1.42,4.86c-1.78,2.27-4.17,2.15-5.71-.31A12.54,12.54,0,0,1,48.27,86.66Zm3.61,1.25a1,1,0,0,0,.9-1.08c0-.17-.46-.45-.73-.47-.64-.06-.91.35-.74.94C51.38,87.54,51.69,87.71,51.88,87.91Z" style="fill: #000; fill-opacity: 1;"></path><path id="Layer_1-2" dataName="Layer 1" d="M58.33,60.6a7.48,7.48,0,0,1-1.18-.44c-3.48-2-3.47-4,0-6.26a1.72,1.72,0,0,1,.53-.12,5.07,5.07,0,0,1,3,1.15A4.41,4.41,0,0,1,60.86,59,4.32,4.32,0,0,1,58.33,60.6Zm.25-3.52a.57.57,0,0,0-.89-.28,2.3,2.3,0,0,0-.42.35c.26.17.51.44.79.48S58.41,57.27,58.58,57.08Z" style="fill: #000; fill-opacity: 1;"></path><path id="Layer_1-2" dataName="Layer 1" d="M32.23,73.34c.69,1.24,1.38,2.1,1.38,3.26a3,3,0,0,1-2,2.9,2.58,2.58,0,0,1-2.88-.92,7.25,7.25,0,0,1-1.19-1.79c-.82-2,.72-4.34,2.87-3.91C31,73,31.47,73.14,32.23,73.34Zm-2.42,2.43.27.18.05-.25Z" style="fill: #000; fill-opacity: 1;"></path><path id="Layer_1-2" dataName="Layer 1" d="M26.3,64A4.26,4.26,0,0,1,29,61.3c1.65-.08,2.29.9,3.2,1.32.69,2.5.38,4.4-2.14,5.56A4,4,0,0,1,26.3,64Zm3.86.84c-.1-.11-.22-.32-.28-.31-.44.15-.46.38,0,.58C29.89,65.15,30.05,65,30.16,64.86Z" style="fill: #000; fill-opacity: 1;"></path><path id="Layer_1-2" dataName="Layer 1" d="M66.19,59.91a10.18,10.18,0,0,1,2.22,0,3,3,0,0,1,2.43,3.13,3.38,3.38,0,0,1-2.38,3.27,2.3,2.3,0,0,1-2-.43,4.73,4.73,0,0,1-1.88-2.77A7.06,7.06,0,0,1,65,61.76C65.29,61.14,65.74,60.58,66.19,59.91Zm2.12,2.9-.25-.32-.33.26c.09.1.17.28.27.29S68.21,62.89,68.31,62.81Z" style="fill: #000; fill-opacity: 1;"></path><path id="Layer_1-2" dataName="Layer 1" d="M60,64.74c2,.31,2.32,1.94,2.75,3.49-.45,1.33-.58,2.88-2.77,3.52-.88.18-1.84-.61-2.77-1.45C56.36,66.56,56.48,66.32,60,64.74Zm-.56,3.82c.11-.12.29-.23.3-.35s-.17-.24-.27-.37c-.1.11-.29.22-.3.33S59.29,68.42,59.4,68.56Z" style="fill: #000; fill-opacity: 1;"></path><path id="Layer_1-2" dataName="Layer 1" d="M31.79,24c3.77,1.85,4.48,2.84,4.07,5.26a2.94,2.94,0,0,1-1.48,2.1A2.63,2.63,0,0,1,31,30.67a4.12,4.12,0,0,1-.6-1.44,5.78,5.78,0,0,1,.33-3.65C31.09,25,31.52,24.39,31.79,24Zm1.41,3.71a5.69,5.69,0,0,0-.32.87c0,.11.18.27.27.4A.8.8,0,0,0,33.2,27.67Z" style="fill: #000; fill-opacity: 1;"></path><path id="Layer_1-2" dataName="Layer 1" d="M43.35,80.52c.52,2,.55,4-1.87,5.5a3.89,3.89,0,0,1-3.4-3.54c-.19-1.57.17-2.86,1.8-3.54A4,4,0,0,1,43.35,80.52Zm-2.54,2,.16-.27-.24,0Z" style="fill: #000; fill-opacity: 1;"></path><path id="Layer_1-2" dataName="Layer 1" d="M46.31,47.55l-2-1c-1.3-1.5-.83-3-.39-4.53a7.9,7.9,0,0,1,1.51-.76,4.2,4.2,0,0,1,1.58,0,3.23,3.23,0,0,1,2.93,2.65c.26,1.31-.32,2.16-2.23,3.15A12.92,12.92,0,0,1,46.31,47.55Zm1-3.42a4.9,4.9,0,0,0-.89-.34c-.1,0-.24.2-.36.3.2.16.39.43.59.43S47.11,44.28,47.34,44.13Z" style="fill: #000; fill-opacity: 1;"></path><path id="Layer_1-2" dataName="Layer 1" d="M48.55,78.44l-1.47-2.65a4.74,4.74,0,0,1,1.45-3.47,2.49,2.49,0,0,1,3,.49,4.3,4.3,0,0,1,1.72,2.63,2.69,2.69,0,0,1-1.77,3A13,13,0,0,1,48.55,78.44Zm2.06-2.87-.19.26.32,0Z" style="fill: #000; fill-opacity: 1;"></path><path id="Layer_1-2" dataName="Layer 1" d="M42.12,68.06a6,6,0,0,1,.3,4.25,2.88,2.88,0,0,1-2.49,1.8,3.23,3.23,0,0,1-2.54-1.76,4.64,4.64,0,0,1,0-3.18A3.27,3.27,0,0,1,39.82,67ZM40,70.45l-.22-.35c-.1.1-.27.18-.28.29s.12.22.2.34Z" style="fill: #000; fill-opacity: 1;"></path><path id="Layer_1-2" dataName="Layer 1" d="M59.66,47.51l-1.24,2.25a7.44,7.44,0,0,1-1.93.42c-2.23-.1-3.26-1.24-3.18-3.38a2.65,2.65,0,0,1,1.51-2.62,3.11,3.11,0,0,1,3.06.29C58.92,45.09,59.09,46.19,59.66,47.51Zm-3.18-.06c-.1-.11-.2-.3-.31-.31s-.23.16-.35.26c.1.11.2.29.31.3S56.36,47.54,56.48,47.45Z" style="fill: #000; fill-opacity: 1;"></path><path id="Layer_1-2" dataName="Layer 1" d="M39.49,24.63c-.48-1.79-.57-3,0-4.26A3.81,3.81,0,0,1,41.75,19a4.08,4.08,0,0,1,2.44,1.07c.89,1.35.54,2.75.27,4a4.22,4.22,0,0,1-2.59,1.67Zm2.72-2.26L41.94,22c-.11.1-.29.18-.3.29s.16.22.25.33Z" style="fill: #000; fill-opacity: 1;"></path><path id="Layer_1-2" dataName="Layer 1" d="M17.06,75.05a5.9,5.9,0,0,1-1.47-3.23A3.52,3.52,0,0,1,18.39,69c2.86,1.48,3.69,2.56,3.13,4.28A4.6,4.6,0,0,1,20.27,75C19.76,75.49,19.7,75.42,17.06,75.05Zm1.66-2.58.34.21,0-.36Z" style="fill: #000; fill-opacity: 1;"></path><path id="Layer_1-2" dataName="Layer 1" d="M71.59,71.59a5.41,5.41,0,0,1,.15,3.82A3.91,3.91,0,0,1,69.4,77c-1.74-.5-2.9-1.51-3-3.4a3.23,3.23,0,0,1,2-3.42C70,70,70.73,71.09,71.59,71.59Zm-2.42,2.3c.11-.08.29-.17.3-.27s-.16-.21-.24-.31c-.11.09-.28.17-.29.27S69.09,73.79,69.17,73.89Z" style="fill: #000; fill-opacity: 1;"></path><path id="Layer_1-2" dataName="Layer 1" d="M78.56,56.37c0,1.6-.43,2.73-1.72,3.34a2.33,2.33,0,0,1-2.51-.42,3.07,3.07,0,0,1-1.1-3.38,4.12,4.12,0,0,1,.69-1.43,2.35,2.35,0,0,1,2.33-1,2.47,2.47,0,0,1,2,1.61A6.08,6.08,0,0,1,78.56,56.37Z" style="fill: #000; fill-opacity: 1;"></path><path id="Layer_1-2" dataName="Layer 1" d="M35,60.09a4.74,4.74,0,0,1,1.34-2.86,3.53,3.53,0,0,1,3.09-.34c1,.59,1.22,1.7,1.72,2.53A3.87,3.87,0,0,1,38.27,63,3.58,3.58,0,0,1,35,60.09Z" style="fill: #000; fill-opacity: 1;"></path><path id="Layer_1-2" dataName="Layer 1" d="M60.57,76.17c3.11,1.57,3.16,1.73,2.28,6a2.65,2.65,0,0,1-3,.71,4,4,0,0,1-1.7-1.2,3,3,0,0,1-.44-2.58A3.64,3.64,0,0,1,60.57,76.17Zm-.09,4.26c.12-.11.33-.22.33-.34s-.19-.26-.29-.39c-.11.12-.31.24-.32.36S60.39,80.32,60.48,80.43Z" style="fill: #000; fill-opacity: 1;"></path><path id="Layer_1-2" dataName="Layer 1" d="M77,35.45l-.94,2a2.91,2.91,0,0,1-3.08.64,4.19,4.19,0,0,1-1.71-1.18,3.2,3.2,0,0,1-.57-2.53,2.77,2.77,0,0,1,1.86-2.41c1.35-.28,2.34.52,3.55,1.31ZM73.63,35c-.12.1-.35.23-.33.29.14.47.37.49.59.06C73.92,35.33,73.72,35.16,73.63,35Z" style="fill: #000; fill-opacity: 1;"></path><path id="Layer_1-2" dataName="Layer 1" d="M23.66,35.7A5.4,5.4,0,0,1,22,33c.05-1.9,1.27-2.78,2.77-3.35,3.05,1.54,3.85,2.55,3.28,4.26a3.65,3.65,0,0,1-1.23,1.69A3.13,3.13,0,0,1,23.66,35.7Z" style="fill: #000; fill-opacity: 1;"></path><path id="Layer_1-2" dataName="Layer 1" d="M76.74,64.67a4.35,4.35,0,0,1,3.54,3.59l-1,2.1c-3.23.75-4.48.44-5.07-1.2C73.53,67.24,74.16,66.08,76.74,64.67Zm.49,3.47-.34-.38-.38.34c.12.12.23.34.35.35S77.11,68.25,77.23,68.14Z" style="fill: #000; fill-opacity: 1;"></path><path id="Layer_1-2" dataName="Layer 1" d="M15.09,60.45a8.77,8.77,0,0,1,.6-1.62,2.44,2.44,0,0,1,4.08-.09,4.15,4.15,0,0,1,.63,3.61,2.78,2.78,0,0,1-2.85,2A2.63,2.63,0,0,1,15.09,62C15.06,61.59,15.09,61.23,15.09,60.45Zm3,1.09-.23-.2-.05.32Z" style="fill: #000; fill-opacity: 1;"></path><path id="Layer_1-2" dataName="Layer 1" d="M35.39,42.14l-2.11-1c-1.08-1.51-.76-2.92-.41-4.33A3.19,3.19,0,0,1,36.34,36c2,1,2,2.76,1.55,4.57A4,4,0,0,1,35.39,42.14Z" style="fill: #000; fill-opacity: 1;"></path><path id="Layer_1-2" dataName="Layer 1" d="M68.32,54.17c-4.69.58-5.54-.3-4.71-4.49,1.23-1.16,2.64-.88,4-.48,1.1.6,1.24,1.73,1.72,2.65ZM66,51.55l-.24.33.4,0Z" style="fill: #000; fill-opacity: 1;"></path><path id="Layer_1-2" dataName="Layer 1" d="M19,47.29a3.61,3.61,0,0,1,.42,3.29,2.68,2.68,0,0,1-2.92,1.77,2.55,2.55,0,0,1-2.35-1.85C13.63,48.64,13.94,47,16,46a6.74,6.74,0,0,1,1.44.36A14.64,14.64,0,0,1,19,47.29ZM16.8,49.85l.23-.37-.37,0Z" style="fill: #000; fill-opacity: 1;"></path><path id="Layer_1-2" dataName="Layer 1" d="M26.5,46.57l-2.11-1.15c-.62-3.23-.18-4.58,1.52-5a2.86,2.86,0,0,1,3.21,1.3,3.63,3.63,0,0,1,.21,2.59C29.1,45.21,29.08,45.21,26.5,46.57Zm.19-3.7-.22.32.33.05Z" style="fill: #000; fill-opacity: 1;"></path><path id="Layer_1-2" dataName="Layer 1" d="M36.48,52.3a13.27,13.27,0,0,1-1.95-1.72,4.07,4.07,0,0,1-.7-2,2.79,2.79,0,0,1,2-2.87A3,3,0,0,1,39,47.32a3.94,3.94,0,0,1,.15,3.15C38.8,51.33,38.16,52,36.48,52.3Zm.18-3.69-.22-.18,0,.29Z" style="fill: #000; fill-opacity: 1;"></path><path id="Layer_1-2" dataName="Layer 1" d="M50.26,54.54a2.71,2.71,0,0,1-1.43,2.74,2.18,2.18,0,0,1-1.52.24,3.66,3.66,0,0,1-2.53-3.2,2.88,2.88,0,0,1,2.3-3.17,2.77,2.77,0,0,1,3.09,2.36C50.23,53.86,50.23,54.22,50.26,54.54Zm-2.81-.73-.2.3.29,0Z" style="fill: #000; fill-opacity: 1;"></path><path id="Layer_1-2" dataName="Layer 1" d="M63.69,44.28l-2-.85a3.82,3.82,0,0,1-.75-3.23A2.31,2.31,0,0,1,63.43,38a2.9,2.9,0,0,1,3,3C66.3,42.66,65.38,43.64,63.69,44.28ZM63.91,41l-.26-.19,0,.28Z" style="fill: #000; fill-opacity: 1;"></path><path id="Layer_1-2" dataName="Layer 1" d="M25.51,51.72a6.77,6.77,0,0,1,1.65-.62c2.69-.25,4.06,1.44,3.22,3.92a2.41,2.41,0,0,1-1.92,1.67,2.64,2.64,0,0,1-2.82-1C24.82,54.52,24.86,53.32,25.51,51.72Zm2.23,2.44.17-.23-.26,0Z" style="fill: #000; fill-opacity: 1;"></path><path id="Layer_1-2" dataName="Layer 1" d="M16.23,41.68A3.1,3.1,0,0,1,13,38.81a2.86,2.86,0,0,1,2.51-3c1.81-.11,3.18,1.43,3.11,3.52A2.21,2.21,0,0,1,16.23,41.68Zm-.44-3.15-.18.25.27,0Z" style="fill: #000; fill-opacity: 1;"></path><path id="Layer_1-2" dataName="Layer 1" d="M57.34,309.27a22.93,22.93,0,0,1-.79,3.09,2.66,2.66,0,0,1-2.5,1.71,2.43,2.43,0,0,1-2.21-1.3,7.44,7.44,0,0,1-.14-7.16,2.38,2.38,0,0,1,3.69-.57,5.33,5.33,0,0,1,1.22,1.69A18.86,18.86,0,0,1,57.34,309.27ZM54,310.76c.7-1.26.89-2.19-.24-3.08C53.27,308.69,53,309.61,54,310.76Z" style="fill: #000; fill-opacity: 1;"></path></svg> <svg xmlns="http://www.w3.org/2000/svg" y="361.7341246058136" viewBox="1.1299999952316284 2.5900001525878906 160.02999877929688 7.029999732971191" x="207.47677891839737" height="7.029999732971191" width="160.02999877929688" style="overflow: visible;"><g fill="#000" fill-opacity="1" style=""><path d="M4.30 9.56L1.13 9.56L1.13 2.65L4.11 2.65Q5.26 2.65 5.90 3.11Q6.54 3.57 6.54 4.42L6.54 4.42Q6.54 4.99 6.27 5.37Q6.01 5.76 5.56 5.95Q5.11 6.15 4.58 6.15L4.58 6.15L4.75 5.91Q5.41 5.91 5.89 6.12Q6.37 6.32 6.63 6.72Q6.90 7.12 6.90 7.71L6.90 7.71Q6.90 8.59 6.25 9.07Q5.61 9.56 4.30 9.56L4.30 9.56ZM1.86 3.25L1.86 8.95L4.29 8.95Q5.20 8.95 5.69 8.64Q6.17 8.33 6.17 7.65L6.17 7.65Q6.17 6.98 5.69 6.67Q5.20 6.36 4.29 6.36L4.29 6.36L1.78 6.36L1.78 5.76L4.06 5.76Q4.89 5.76 5.35 5.44Q5.81 5.12 5.81 4.50L5.81 4.50Q5.81 3.87 5.35 3.56Q4.89 3.25 4.06 3.25L4.06 3.25L1.86 3.25ZM11.77 9.56L11.04 9.56L11.04 2.65L13.62 2.65Q14.50 2.65 15.14 2.93Q15.77 3.21 16.11 3.74Q16.45 4.27 16.45 5.02L16.45 5.02Q16.45 5.75 16.11 6.27Q15.77 6.80 15.14 7.08Q14.50 7.37 13.62 7.37L13.62 7.37L11.44 7.37L11.77 7.03L11.77 9.56ZM16.56 9.56L15.76 9.56L13.98 7.05L14.77 7.05L16.56 9.56ZM11.77 2.93L11.77 7.09L11.44 6.74L13.60 6.74Q14.64 6.74 15.18 6.29Q15.72 5.83 15.72 5.02L15.72 5.02Q15.72 4.19 15.18 3.73Q14.64 3.28 13.60 3.28L13.60 3.28L11.44 3.28L11.77 2.93ZM21.30 6.36L21.30 5.74L24.95 5.74L24.95 6.36L21.30 6.36ZM21.37 3.28L21.37 8.93L25.53 8.93L25.53 9.56L20.64 9.56L20.64 2.65L25.38 2.65L25.38 3.28L21.37 3.28ZM30.37 6.36L30.37 5.74L34.02 5.74L34.02 6.36L30.37 6.36ZM30.45 3.28L30.45 8.93L34.60 8.93L34.60 9.56L29.72 9.56L29.72 2.65L34.46 2.65L34.46 3.28L30.45 3.28ZM43.78 9.56L38.11 9.56L38.11 9.05L42.91 3.00L42.99 3.28L38.18 3.28L38.18 2.65L43.66 2.65L43.66 3.15L38.87 9.20L38.78 8.93L43.78 8.93L43.78 9.56ZM48.34 6.36L48.34 5.74L51.99 5.74L51.99 6.36L48.34 6.36ZM48.42 3.28L48.42 8.93L52.57 8.93L52.57 9.56L47.69 9.56L47.69 2.65L52.43 2.65L52.43 3.28L48.42 3.28ZM64.84 9.62L64.84 9.62Q64.06 9.62 63.39 9.35Q62.72 9.09 62.23 8.61Q61.75 8.14 61.47 7.50Q61.20 6.86 61.20 6.10L61.20 6.10Q61.20 5.34 61.47 4.70Q61.75 4.07 62.23 3.59Q62.72 3.11 63.38 2.85Q64.05 2.59 64.84 2.59L64.84 2.59Q65.62 2.59 66.28 2.85Q66.94 3.11 67.43 3.58Q67.92 4.06 68.19 4.70Q68.46 5.34 68.46 6.10L68.46 6.10Q68.46 6.86 68.19 7.50Q67.92 8.15 67.43 8.62Q66.94 9.09 66.28 9.35Q65.62 9.62 64.84 9.62ZM64.84 8.96L64.84 8.96Q65.46 8.96 65.99 8.75Q66.51 8.54 66.90 8.15Q67.29 7.76 67.51 7.24Q67.73 6.72 67.73 6.10L67.73 6.10Q67.73 5.48 67.51 4.96Q67.29 4.44 66.90 4.05Q66.51 3.66 65.99 3.45Q65.46 3.24 64.84 3.24L64.84 3.24Q64.21 3.24 63.68 3.45Q63.15 3.66 62.76 4.05Q62.37 4.44 62.15 4.96Q61.92 5.48 61.92 6.10L61.92 6.10Q61.92 6.71 62.15 7.24Q62.37 7.76 62.76 8.15Q63.15 8.54 63.68 8.75Q64.21 8.96 64.84 8.96ZM73.22 6.62L73.22 5.99L76.87 5.99L76.87 6.62L73.22 6.62ZM73.30 3.28L73.30 9.56L72.57 9.56L72.57 2.65L77.31 2.65L77.31 3.28L73.30 3.28ZM89.37 9.62L89.37 9.62Q88.58 9.62 87.91 9.35Q87.25 9.09 86.76 8.62Q86.27 8.15 86.00 7.50Q85.73 6.86 85.73 6.10L85.73 6.10Q85.73 5.34 86.00 4.70Q86.27 4.06 86.76 3.58Q87.26 3.11 87.92 2.85Q88.59 2.59 89.38 2.59L89.38 2.59Q90.17 2.59 90.83 2.83Q91.48 3.08 91.95 3.58L91.95 3.58L91.49 4.05Q91.06 3.61 90.53 3.43Q90.01 3.24 89.41 3.24L89.41 3.24Q88.77 3.24 88.23 3.45Q87.69 3.66 87.29 4.05Q86.89 4.44 86.67 4.96Q86.45 5.48 86.45 6.10L86.45 6.10Q86.45 6.71 86.67 7.24Q86.89 7.76 87.29 8.15Q87.69 8.54 88.23 8.75Q88.77 8.96 89.40 8.96L89.40 8.96Q89.99 8.96 90.52 8.79Q91.05 8.61 91.49 8.18L91.49 8.18L91.91 8.74Q91.41 9.17 90.75 9.39Q90.09 9.62 89.37 9.62ZM91.91 8.74L91.21 8.65L91.21 6.10L91.91 6.10L91.91 8.74ZM99.46 9.62L99.46 9.62Q98.68 9.62 98.01 9.35Q97.35 9.09 96.86 8.61Q96.37 8.14 96.10 7.50Q95.83 6.86 95.83 6.10L95.83 6.10Q95.83 5.34 96.10 4.70Q96.37 4.07 96.86 3.59Q97.35 3.11 98.01 2.85Q98.67 2.59 99.46 2.59L99.46 2.59Q100.24 2.59 100.90 2.85Q101.56 3.11 102.05 3.58Q102.54 4.06 102.81 4.70Q103.08 5.34 103.08 6.10L103.08 6.10Q103.08 6.86 102.81 7.50Q102.54 8.15 102.05 8.62Q101.56 9.09 100.90 9.35Q100.24 9.62 99.46 9.62ZM99.46 8.96L99.46 8.96Q100.08 8.96 100.61 8.75Q101.14 8.54 101.53 8.15Q101.92 7.76 102.14 7.24Q102.35 6.72 102.35 6.10L102.35 6.10Q102.35 5.48 102.14 4.96Q101.92 4.44 101.53 4.05Q101.14 3.66 100.61 3.45Q100.08 3.24 99.46 3.24L99.46 3.24Q98.84 3.24 98.30 3.45Q97.77 3.66 97.38 4.05Q96.99 4.44 96.77 4.96Q96.55 5.48 96.55 6.10L96.55 6.10Q96.55 6.71 96.77 7.24Q96.99 7.76 97.38 8.15Q97.77 8.54 98.30 8.75Q98.84 8.96 99.46 8.96ZM110.21 9.62L110.21 9.62Q109.43 9.62 108.77 9.35Q108.10 9.09 107.61 8.61Q107.12 8.14 106.85 7.50Q106.58 6.86 106.58 6.10L106.58 6.10Q106.58 5.34 106.85 4.70Q107.12 4.07 107.61 3.59Q108.10 3.11 108.76 2.85Q109.42 2.59 110.21 2.59L110.21 2.59Q110.99 2.59 111.65 2.85Q112.31 3.11 112.80 3.58Q113.29 4.06 113.56 4.70Q113.83 5.34 113.83 6.10L113.83 6.10Q113.83 6.86 113.56 7.50Q113.29 8.15 112.80 8.62Q112.31 9.09 111.65 9.35Q110.99 9.62 110.21 9.62ZM110.21 8.96L110.21 8.96Q110.83 8.96 111.36 8.75Q111.89 8.54 112.28 8.15Q112.67 7.76 112.89 7.24Q113.10 6.72 113.10 6.10L113.10 6.10Q113.10 5.48 112.89 4.96Q112.67 4.44 112.28 4.05Q111.89 3.66 111.36 3.45Q110.83 3.24 110.21 3.24L110.21 3.24Q109.59 3.24 109.06 3.45Q108.52 3.66 108.13 4.05Q107.74 4.44 107.52 4.96Q107.30 5.48 107.30 6.10L107.30 6.10Q107.30 6.71 107.52 7.24Q107.74 7.76 108.13 8.15Q108.52 8.54 109.06 8.75Q109.59 8.96 110.21 8.96ZM120.76 9.56L117.94 9.56L117.94 2.65L120.76 2.65Q121.86 2.65 122.70 3.09Q123.53 3.52 123.99 4.30Q124.46 5.08 124.46 6.10L124.46 6.10Q124.46 7.12 123.99 7.90Q123.53 8.68 122.70 9.12Q121.86 9.56 120.76 9.56L120.76 9.56ZM118.67 3.28L118.67 8.93L120.72 8.93Q121.63 8.93 122.31 8.56Q122.99 8.20 123.36 7.57Q123.74 6.93 123.74 6.10L123.74 6.10Q123.74 5.26 123.36 4.63Q122.99 4.00 122.31 3.64Q121.63 3.28 120.72 3.28L120.72 3.28L118.67 3.28ZM129.30 9.56L128.57 9.56L128.57 2.65L129.17 2.65L133.94 8.65L133.62 8.65L133.62 2.65L134.34 2.65L134.34 9.56L133.74 9.56L128.98 3.55L129.30 3.55L129.30 9.56ZM139.71 6.36L139.71 5.74L143.36 5.74L143.36 6.36L139.71 6.36ZM139.79 3.28L139.79 8.93L143.95 8.93L143.95 9.56L139.06 9.56L139.06 2.65L143.80 2.65L143.80 3.28L139.79 3.28ZM150.04 9.62L150.04 9.62Q149.27 9.62 148.56 9.36Q147.86 9.11 147.47 8.72L147.47 8.72L147.76 8.16Q148.12 8.51 148.74 8.75Q149.36 8.99 150.04 8.99L150.04 8.99Q150.69 8.99 151.10 8.83Q151.51 8.67 151.70 8.39Q151.90 8.12 151.90 7.78L151.90 7.78Q151.90 7.38 151.66 7.13Q151.43 6.88 151.06 6.74Q150.68 6.60 150.23 6.49Q149.77 6.38 149.32 6.25Q148.86 6.13 148.48 5.92Q148.10 5.72 147.87 5.38Q147.64 5.04 147.64 4.48L147.64 4.48Q147.64 3.97 147.91 3.54Q148.18 3.11 148.75 2.85Q149.31 2.59 150.19 2.59L150.19 2.59Q150.77 2.59 151.34 2.75Q151.91 2.91 152.33 3.20L152.33 3.20L152.08 3.78Q151.64 3.49 151.14 3.35Q150.64 3.21 150.18 3.21L150.18 3.21Q149.56 3.21 149.15 3.38Q148.75 3.54 148.55 3.83Q148.36 4.11 148.36 4.46L148.36 4.46Q148.36 4.87 148.59 5.11Q148.82 5.36 149.20 5.50Q149.58 5.64 150.04 5.75Q150.49 5.85 150.94 5.98Q151.39 6.11 151.77 6.31Q152.15 6.52 152.38 6.85Q152.62 7.19 152.62 7.73L152.62 7.73Q152.62 8.23 152.34 8.66Q152.06 9.09 151.50 9.35Q150.93 9.62 150.04 9.62ZM158.58 9.62L158.58 9.62Q157.81 9.62 157.10 9.36Q156.40 9.11 156.01 8.72L156.01 8.72L156.30 8.16Q156.66 8.51 157.28 8.75Q157.90 8.99 158.58 8.99L158.58 8.99Q159.23 8.99 159.64 8.83Q160.05 8.67 160.24 8.39Q160.44 8.12 160.44 7.78L160.44 7.78Q160.44 7.38 160.20 7.13Q159.97 6.88 159.60 6.74Q159.22 6.60 158.77 6.49Q158.31 6.38 157.86 6.25Q157.40 6.13 157.02 5.92Q156.64 5.72 156.41 5.38Q156.18 5.04 156.18 4.48L156.18 4.48Q156.18 3.97 156.45 3.54Q156.72 3.11 157.29 2.85Q157.85 2.59 158.73 2.59L158.73 2.59Q159.31 2.59 159.88 2.75Q160.45 2.91 160.87 3.20L160.87 3.20L160.62 3.78Q160.18 3.49 159.68 3.35Q159.18 3.21 158.72 3.21L158.72 3.21Q158.10 3.21 157.69 3.38Q157.29 3.54 157.09 3.83Q156.90 4.11 156.90 4.46L156.90 4.46Q156.90 4.87 157.13 5.11Q157.36 5.36 157.74 5.50Q158.12 5.64 158.58 5.75Q159.03 5.85 159.48 5.98Q159.93 6.11 160.31 6.31Q160.69 6.52 160.92 6.85Q161.16 7.19 161.16 7.73L161.16 7.73Q161.16 8.23 160.88 8.66Q160.60 9.09 160.04 9.35Q159.47 9.62 158.58 9.62Z" transform="translate(0, 0)"></path></g></svg> <svg xmlns="http://www.w3.org/2000/svg" y="332.11531631351863" viewBox="0.6000000238418579 6.940000057220459 395 15.85999870300293" x="90" height="15.85999870300293" width="395" style="overflow: visible;"><g fill="#000" fill-opacity="1" style=""><path d="M4.75 22.45L4.75 22.45Q4.46 22.45 4.28 22.39Q4.10 22.34 4.10 22.20L4.10 22.20Q4.10 22.05 4.28 21.96Q4.46 21.87 4.84 21.80L4.84 21.80Q5.68 21.65 6.12 21.26Q6.57 20.87 6.57 20.07L6.57 20.07L6.57 11.47Q6.57 10.45 6.52 9.90Q6.48 9.36 6.38 9.14Q6.28 8.92 6.10 8.89L6.10 8.89Q5.79 8.83 5.45 8.82Q5.10 8.81 4.52 8.81L4.52 8.81L3.48 8.81Q2.95 8.81 2.43 9.02Q1.91 9.23 1.66 9.67L1.66 9.67Q1.60 9.78 1.44 9.99Q1.29 10.20 1.11 10.36Q0.93 10.51 0.75 10.51L0.75 10.51Q0.67 10.51 0.63 10.43Q0.60 10.34 0.60 10.23L0.60 10.23Q0.60 10.00 0.71 9.78L0.71 9.78Q1.02 9.14 1.16 8.64Q1.31 8.14 1.40 7.45L1.40 7.45Q1.44 7.08 1.56 7.01Q1.69 6.94 1.77 6.94L1.77 6.94Q1.86 6.94 2.05 7.21Q2.24 7.48 2.33 7.65L2.33 7.65Q2.46 7.87 2.94 7.99Q3.42 8.10 3.88 8.10L3.88 8.10L11.69 8.10Q12.47 8.10 12.95 8.01Q13.44 7.92 13.80 7.76L13.80 7.76Q14.06 7.63 14.23 7.48Q14.40 7.32 14.66 7.32L14.66 7.32Q14.73 7.32 14.77 7.49Q14.82 7.65 14.82 7.83L14.82 7.83Q14.82 7.94 14.78 8.14Q14.75 8.34 14.73 8.45L14.73 8.45Q14.66 8.85 14.61 9.03Q14.55 9.21 14.53 9.34Q14.51 9.47 14.51 9.76L14.51 9.76L14.51 10.03Q14.51 10.23 14.42 10.48Q14.33 10.74 14.15 10.74L14.15 10.74Q14.00 10.74 13.91 10.49Q13.82 10.25 13.73 9.83L13.73 9.83Q13.64 9.36 13.20 9.08Q12.75 8.81 11.69 8.81L11.69 8.81L9.45 8.81Q8.96 8.81 8.72 8.94Q8.47 9.07 8.41 9.60Q8.34 10.14 8.34 11.36L8.34 11.36L8.34 20.07Q8.34 20.87 8.81 21.26Q9.27 21.65 10.09 21.80L10.09 21.80Q10.47 21.87 10.65 21.96Q10.82 22.05 10.82 22.20L10.82 22.20Q10.82 22.34 10.65 22.39Q10.47 22.45 10.18 22.45L10.18 22.45Q9.58 22.45 9.19 22.41Q8.81 22.38 8.45 22.36Q8.10 22.34 7.59 22.34L7.59 22.34Q7.03 22.34 6.62 22.36Q6.21 22.38 5.78 22.41Q5.35 22.45 4.75 22.45ZM27.42 22.45L27.42 22.45Q27.13 22.45 26.95 22.37Q26.77 22.29 26.77 22.16L26.77 22.16Q26.77 21.94 27.48 21.80L27.48 21.80Q28.33 21.65 28.58 21.29Q28.84 20.94 28.84 20.14L28.84 20.14L28.84 10.11Q28.84 9.34 28.67 9.02Q28.50 8.70 27.66 8.54L27.66 8.54Q26.93 8.41 26.93 8.14L26.93 8.14Q26.93 8.01 27.08 7.93Q27.24 7.85 27.57 7.85L27.57 7.85Q28.17 7.85 28.50 7.87Q28.84 7.90 29.12 7.91Q29.41 7.92 29.86 7.92L29.86 7.92Q30.32 7.92 30.62 7.91Q30.92 7.90 31.26 7.87Q31.61 7.85 32.21 7.85L32.21 7.85Q32.85 7.85 32.85 8.14L32.85 8.14Q32.85 8.30 32.67 8.38Q32.50 8.47 32.12 8.54L32.12 8.54Q31.30 8.70 30.95 9.08Q30.61 9.47 30.61 10.11L30.61 10.11L30.61 14.48Q30.61 14.62 30.72 14.65Q30.83 14.68 30.92 14.68L30.92 14.68L39.15 14.68Q39.31 14.68 39.31 14.42L39.31 14.42L39.31 10.09Q39.31 9.49 38.99 9.09Q38.68 8.70 37.84 8.54L37.84 8.54Q37.46 8.47 37.29 8.38Q37.11 8.30 37.11 8.14L37.11 8.14Q37.11 7.85 37.75 7.85L37.75 7.85Q38.35 7.85 38.74 7.87Q39.13 7.90 39.48 7.91Q39.84 7.92 40.33 7.92L40.33 7.92Q40.72 7.92 40.95 7.91Q41.17 7.90 41.46 7.87Q41.75 7.85 42.34 7.85L42.34 7.85Q42.65 7.85 42.82 7.93Q42.99 8.01 42.99 8.14L42.99 8.14Q42.99 8.41 42.26 8.54L42.26 8.54Q41.43 8.70 41.26 9.07Q41.08 9.45 41.08 10.09L41.08 10.09L41.08 20.12Q41.08 20.94 41.29 21.29Q41.50 21.65 42.32 21.80L42.32 21.80Q43.03 21.94 43.03 22.16L43.03 22.16Q43.03 22.29 42.85 22.37Q42.68 22.45 42.39 22.45L42.39 22.45Q41.79 22.45 41.46 22.41Q41.12 22.38 40.84 22.36Q40.55 22.34 40.08 22.34L40.08 22.34Q39.62 22.34 39.32 22.36Q39.02 22.38 38.66 22.41Q38.31 22.45 37.71 22.45L37.71 22.45Q37.42 22.45 37.24 22.37Q37.06 22.29 37.06 22.16L37.06 22.16Q37.06 22.00 37.23 21.94Q37.40 21.87 37.77 21.80L37.77 21.80Q38.48 21.67 38.89 21.28Q39.31 20.89 39.31 20.18L39.31 20.18L39.31 15.86Q39.31 15.75 39.31 15.64Q39.31 15.53 39.19 15.53L39.19 15.53L30.72 15.53Q30.61 15.53 30.61 15.77L30.61 15.77L30.61 19.99Q30.61 20.67 31.12 21.17Q31.63 21.67 32.38 21.80L32.38 21.80Q32.76 21.87 32.93 21.94Q33.09 22.00 33.09 22.16L33.09 22.16Q33.09 22.29 32.92 22.37Q32.74 22.45 32.45 22.45L32.45 22.45Q31.85 22.45 31.46 22.41Q31.08 22.38 30.72 22.36Q30.37 22.34 29.86 22.34L29.86 22.34Q29.39 22.34 29.07 22.36Q28.75 22.38 28.38 22.41Q28.01 22.45 27.42 22.45ZM56.47 22.45L56.47 22.45Q56.19 22.45 56.01 22.39Q55.83 22.34 55.83 22.20L55.83 22.20Q55.83 21.94 56.56 21.80L56.56 21.80Q57.41 21.65 57.80 21.29Q58.20 20.94 58.20 20.14L58.20 20.14L58.20 10.16Q58.20 9.36 57.88 9.03Q57.56 8.70 56.72 8.54L56.72 8.54Q56.34 8.47 56.16 8.36Q55.99 8.25 55.99 8.10L55.99 8.10Q55.99 7.96 56.16 7.91Q56.34 7.85 56.63 7.85L56.63 7.85Q57.47 7.85 58.06 7.87Q58.65 7.90 59.21 7.91Q59.78 7.92 60.55 7.92L60.55 7.92Q61.29 7.92 62.10 7.91Q62.91 7.90 63.59 7.90L63.59 7.90Q64.35 7.87 64.87 7.86Q65.39 7.85 65.48 7.85L65.48 7.85Q65.59 7.85 65.72 7.90Q65.86 7.94 65.88 8.05L65.88 8.05Q65.99 8.67 66.10 9.28Q66.21 9.89 66.21 10.34L66.21 10.34Q66.21 10.54 66.11 10.60Q66.01 10.67 65.90 10.67L65.90 10.67Q65.79 10.67 65.75 10.61Q65.70 10.56 65.66 10.45L65.66 10.45Q65.55 10.07 65.43 9.73Q65.32 9.38 65.17 9.23L65.17 9.23Q64.86 8.87 64.48 8.75Q64.10 8.63 63.68 8.63L63.68 8.63L60.78 8.63Q60.60 8.63 60.29 8.83Q59.98 9.03 59.98 9.34L59.98 9.34L59.98 14.04Q59.98 14.24 60.10 14.38Q60.22 14.53 60.38 14.53L60.38 14.53L62.57 14.53Q63.22 14.53 63.46 14.30Q63.70 14.06 63.86 13.44L63.86 13.44Q63.99 12.95 64.26 12.95L64.26 12.95Q64.35 12.95 64.45 13.04Q64.55 13.13 64.55 13.31L64.55 13.31Q64.55 13.40 64.54 13.71Q64.53 14.02 64.50 14.35Q64.48 14.68 64.48 14.86L64.48 14.86Q64.48 15.08 64.49 15.45Q64.50 15.82 64.51 16.15Q64.53 16.48 64.53 16.57L64.53 16.57Q64.53 16.72 64.49 16.84Q64.46 16.95 64.33 16.95L64.33 16.95Q63.99 16.95 63.82 16.24L63.82 16.24Q63.68 15.73 63.46 15.48Q63.24 15.24 62.80 15.24L62.80 15.24L60.73 15.24Q60.36 15.24 60.17 15.34Q59.98 15.44 59.98 15.82L59.98 15.82L59.98 20.07Q59.98 20.92 60.33 21.24Q60.69 21.56 61.44 21.56L61.44 21.56L63.08 21.56Q63.79 21.56 64.27 21.48Q64.75 21.40 65.10 21.18L65.10 21.18Q65.46 20.94 65.73 20.54Q66.01 20.14 66.37 19.48L66.37 19.48Q66.43 19.34 66.52 19.25Q66.61 19.16 66.72 19.19L66.72 19.19Q66.83 19.21 66.90 19.29Q66.97 19.36 66.97 19.50L66.97 19.50Q66.97 19.70 66.85 20.20Q66.74 20.70 66.58 21.23Q66.41 21.76 66.28 22.07L66.28 22.07Q66.21 22.23 66.16 22.34Q66.10 22.45 65.97 22.45L65.97 22.45Q64.90 22.45 63.99 22.43Q63.08 22.40 62.26 22.38Q61.44 22.36 60.65 22.34Q59.87 22.31 59.02 22.31L59.02 22.31Q58.54 22.31 58.18 22.35Q57.83 22.38 57.45 22.41Q57.07 22.45 56.47 22.45ZM95.20 22.45L95.20 22.45Q94.91 22.45 94.74 22.39Q94.56 22.34 94.56 22.20L94.56 22.20Q94.56 21.94 95.29 21.80L95.29 21.80Q96.13 21.65 96.58 21.29Q97.02 20.94 97.02 20.14L97.02 20.14L97.02 10.16Q97.02 9.36 96.69 8.98Q96.36 8.61 95.53 8.54L95.53 8.54Q95.16 8.50 94.98 8.37Q94.80 8.25 94.80 8.10L94.80 8.10Q94.80 7.96 94.98 7.91Q95.16 7.85 95.45 7.85L95.45 7.85Q96.04 7.85 96.38 7.85Q96.71 7.85 97.01 7.86Q97.31 7.87 97.75 7.87L97.75 7.87Q98.17 7.87 98.48 7.84Q98.80 7.81 99.18 7.79Q99.57 7.76 100.21 7.76L100.21 7.76Q102.81 7.76 104.09 8.51Q105.36 9.25 105.36 11.07L105.36 11.07Q105.36 11.82 105.11 12.39Q104.85 12.95 104.61 13.20L104.61 13.20Q104.25 13.55 103.96 13.74Q103.68 13.93 103.12 14.15L103.12 14.15Q103.03 14.17 103.03 14.25Q103.03 14.33 103.12 14.37L103.12 14.37Q103.63 14.53 104.17 14.77Q104.72 15.02 105.19 15.40Q105.67 15.79 105.97 16.43Q106.27 17.06 106.27 18.03L106.27 18.03Q106.27 19.25 105.88 19.96Q105.49 20.67 104.96 21.05Q104.43 21.43 103.96 21.67L103.96 21.67Q103.28 22.03 102.37 22.23Q101.46 22.43 100.19 22.43L100.19 22.43Q99.90 22.43 99.33 22.38Q98.75 22.34 98.09 22.34L98.09 22.34Q97.51 22.34 97.11 22.36Q96.71 22.38 96.28 22.41Q95.85 22.45 95.20 22.45ZM100.50 21.52L100.50 21.52Q101.48 21.52 102.32 21.07Q103.17 20.63 103.68 19.86Q104.19 19.10 104.19 18.14L104.19 18.14Q104.19 17.28 103.90 16.71Q103.61 16.15 103.23 15.79Q102.85 15.44 102.54 15.28L102.54 15.28Q102.26 15.11 101.63 14.92Q101.01 14.73 100.02 14.73L100.02 14.73Q99.31 14.73 99.03 15.02Q98.75 15.31 98.75 15.53L98.75 15.53L98.75 19.94Q98.75 20.87 99.21 21.19Q99.66 21.52 100.50 21.52ZM99.77 14.11L99.77 14.11Q100.37 14.11 101.07 13.97Q101.77 13.84 102.46 13.46L102.46 13.46Q102.70 13.33 103.08 12.82Q103.45 12.31 103.45 11.36L103.45 11.36Q103.45 10.71 103.21 10.04Q102.97 9.36 102.28 8.89Q101.59 8.43 100.21 8.43L100.21 8.43Q99.31 8.43 99.03 8.67Q98.75 8.92 98.75 9.43L98.75 9.43L98.75 13.29Q98.75 13.86 99.13 13.99Q99.51 14.11 99.77 14.11ZM118.85 22.45L118.85 22.45Q118.56 22.45 118.38 22.37Q118.20 22.29 118.20 22.16L118.20 22.16Q118.20 22.00 118.39 21.88Q118.58 21.76 118.94 21.65L118.94 21.65Q119.51 21.47 120.00 21.12Q120.49 20.76 120.84 19.94L120.84 19.94Q121.46 18.52 121.99 17.28Q122.51 16.04 122.97 14.84Q123.44 13.64 123.94 12.34Q124.44 11.05 124.99 9.52L124.99 9.52Q125.10 9.21 125.19 8.89Q125.28 8.58 125.30 8.23L125.30 8.23Q125.50 8.16 125.70 8.10Q125.90 8.03 126.10 7.90L126.10 7.90Q126.30 7.76 126.38 7.50Q126.46 7.23 126.52 7.14L126.52 7.14Q126.54 7.12 126.58 7.12Q126.61 7.12 126.63 7.16L126.63 7.16Q126.68 7.25 126.71 7.39Q126.74 7.52 126.79 7.65L126.79 7.65Q127.32 9.34 127.90 11.09Q128.47 12.84 129.02 14.47Q129.56 16.10 130.02 17.40Q130.47 18.70 130.74 19.50L130.74 19.50Q131.05 20.38 131.40 20.83Q131.76 21.27 132.14 21.45Q132.53 21.63 132.98 21.72L132.98 21.72Q133.35 21.78 133.53 21.93Q133.71 22.07 133.71 22.23L133.71 22.23Q133.71 22.36 133.53 22.40Q133.35 22.45 133.07 22.45L133.07 22.45Q132.75 22.45 132.22 22.41Q131.69 22.38 131.09 22.35Q130.49 22.31 129.98 22.31L129.98 22.31Q129.56 22.31 129.12 22.31Q128.67 22.31 128.30 22.33Q127.92 22.34 127.65 22.34L127.65 22.34Q127.36 22.34 127.19 22.27Q127.01 22.20 127.01 22.07L127.01 22.07Q127.01 21.92 127.23 21.80Q127.45 21.69 127.74 21.65L127.74 21.65Q128.47 21.54 128.78 21.27Q129.09 21.01 129.09 20.65L129.09 20.65Q129.09 20.32 128.95 19.69Q128.81 19.05 128.61 18.33Q128.41 17.61 128.23 17.06L128.23 17.06Q128.19 16.88 128.06 16.85Q127.94 16.81 127.63 16.81L127.63 16.81L123.44 16.81Q123.35 16.81 123.25 16.89Q123.15 16.97 123.06 17.21L123.06 17.21Q123.00 17.43 122.84 17.91Q122.68 18.39 122.53 18.92Q122.37 19.45 122.26 19.87Q122.15 20.30 122.15 20.41L122.15 20.41Q122.15 20.89 122.53 21.22Q122.91 21.54 123.44 21.67L123.44 21.67Q124.17 21.87 124.17 22.11L124.17 22.11Q124.17 22.25 123.99 22.30Q123.82 22.36 123.53 22.36L123.53 22.36Q123.24 22.36 122.68 22.34Q122.13 22.31 121.51 22.31L121.51 22.31Q120.78 22.31 120.09 22.38Q119.40 22.45 118.85 22.45ZM124.04 16.08L124.04 16.08L127.48 16.08Q127.79 16.08 127.79 15.97L127.79 15.97Q127.79 15.93 127.78 15.87Q127.76 15.82 127.74 15.75L127.74 15.75L126.01 10.34Q125.88 9.94 125.81 9.94L125.81 9.94Q125.77 9.94 125.63 10.31L125.63 10.31L123.62 15.75Q123.57 15.88 123.57 15.93L123.57 15.93Q123.57 16.04 123.69 16.06Q123.82 16.08 124.04 16.08ZM146.02 22.45L146.02 22.45Q145.73 22.45 145.55 22.39Q145.38 22.34 145.38 22.20L145.38 22.20Q145.38 21.94 146.11 21.80L146.11 21.80Q146.95 21.65 147.27 21.28Q147.59 20.92 147.59 20.10L147.59 20.10L147.59 10.11Q147.59 9.34 147.27 9.02Q146.95 8.70 146.11 8.54L146.11 8.54Q145.38 8.41 145.38 8.10L145.38 8.10Q145.38 7.96 145.55 7.91Q145.73 7.85 146.02 7.85L146.02 7.85Q146.62 7.85 146.98 7.86Q147.35 7.87 147.68 7.89Q148.02 7.90 148.50 7.90L148.50 7.90Q148.92 7.90 149.18 7.89Q149.44 7.87 149.75 7.86Q150.06 7.85 150.66 7.85L150.66 7.85Q150.94 7.85 151.12 7.91Q151.30 7.96 151.30 8.10L151.30 8.10Q151.30 8.25 151.12 8.36Q150.94 8.47 150.57 8.54L150.57 8.54Q149.75 8.70 149.56 9.08Q149.37 9.47 149.37 10.11L149.37 10.11L149.37 14.26Q149.37 14.35 149.38 14.52Q149.39 14.68 149.48 14.68L149.48 14.68Q149.59 14.68 149.78 14.55Q149.97 14.42 150.08 14.28L150.08 14.28L154.51 9.76Q154.69 9.58 154.77 9.42Q154.85 9.25 154.85 9.09L154.85 9.09Q154.85 8.70 154.43 8.58L154.43 8.58Q154.05 8.47 153.89 8.38Q153.74 8.30 153.74 8.14L153.74 8.14Q153.74 8.01 153.92 7.95Q154.09 7.90 154.38 7.90L154.38 7.90L155.58 7.90Q156.22 7.90 157.00 7.87Q157.78 7.85 158.41 7.83Q159.04 7.81 159.17 7.81L159.17 7.81Q159.39 7.81 159.53 7.87Q159.66 7.94 159.66 8.05L159.66 8.05Q159.66 8.21 159.48 8.32Q159.31 8.43 158.93 8.50L158.93 8.50Q158.11 8.65 157.22 8.98Q156.33 9.32 155.56 9.96L155.56 9.96Q154.76 10.62 154.08 11.26Q153.41 11.89 152.74 12.57Q152.07 13.24 151.30 14.11L151.30 14.11Q151.17 14.24 151.41 14.51L151.41 14.51L156.78 20.23Q157.27 20.76 157.56 21.05Q157.86 21.34 158.23 21.50Q158.60 21.67 159.22 21.80L159.22 21.80Q159.59 21.89 159.77 21.97Q159.95 22.05 159.95 22.20L159.95 22.20Q159.95 22.34 159.77 22.39Q159.59 22.45 159.31 22.45L159.31 22.45Q158.66 22.45 158.20 22.41Q157.73 22.38 157.29 22.36Q156.84 22.34 156.22 22.34L156.22 22.34Q155.80 22.34 155.49 22.35Q155.18 22.36 154.43 22.36L154.43 22.36Q154.14 22.36 153.96 22.30Q153.78 22.25 153.78 22.11L153.78 22.11Q153.78 21.87 154.38 21.74L154.38 21.74Q155.00 21.58 155.00 21.29L155.00 21.29Q155.00 21.16 154.90 21.03Q154.80 20.89 154.67 20.74L154.67 20.74L149.97 15.55Q149.83 15.42 149.69 15.29Q149.55 15.17 149.46 15.17L149.46 15.17Q149.37 15.17 149.37 15.35Q149.37 15.53 149.37 15.64L149.37 15.64Q149.37 16.68 149.40 17.62Q149.44 18.57 149.48 19.90L149.48 19.90Q149.50 20.36 149.62 20.76Q149.75 21.16 150.05 21.43Q150.34 21.69 150.90 21.80L150.90 21.80Q151.28 21.87 151.45 21.96Q151.63 22.05 151.63 22.20L151.63 22.20Q151.63 22.34 151.45 22.39Q151.28 22.45 150.99 22.45L150.99 22.45Q150.39 22.45 150.07 22.40Q149.75 22.36 149.49 22.33Q149.24 22.29 148.81 22.29L148.81 22.29Q148.28 22.29 147.87 22.33Q147.46 22.36 147.04 22.40Q146.62 22.45 146.02 22.45ZM171.95 22.45L171.95 22.45Q171.66 22.45 171.48 22.39Q171.31 22.34 171.31 22.20L171.31 22.20Q171.31 21.94 172.04 21.80L172.04 21.80Q172.88 21.65 173.32 21.29Q173.77 20.94 173.77 20.16L173.77 20.16L173.77 10.14Q173.77 9.36 173.45 9.03Q173.12 8.70 172.28 8.54L172.28 8.54Q171.55 8.41 171.55 8.10L171.55 8.10Q171.55 7.96 171.73 7.91Q171.90 7.85 172.19 7.85L172.19 7.85Q172.79 7.85 173.18 7.87Q173.57 7.90 173.92 7.91Q174.28 7.92 174.79 7.92L174.79 7.92Q175.28 7.92 175.59 7.91Q175.90 7.90 176.25 7.87Q176.61 7.85 177.21 7.85L177.21 7.85Q177.49 7.85 177.67 7.91Q177.85 7.96 177.85 8.10L177.85 8.10Q177.85 8.25 177.67 8.36Q177.49 8.47 177.12 8.54L177.12 8.54Q176.30 8.70 175.92 9.03Q175.54 9.36 175.54 10.14L175.54 10.14L175.54 20.16Q175.54 20.94 176.01 21.29Q176.47 21.65 177.29 21.80L177.29 21.80Q177.67 21.87 177.85 21.96Q178.03 22.05 178.03 22.20L178.03 22.20Q178.03 22.34 177.85 22.39Q177.67 22.45 177.38 22.45L177.38 22.45Q176.78 22.45 176.40 22.41Q176.01 22.38 175.65 22.36Q175.30 22.34 174.79 22.34L174.79 22.34Q174.23 22.34 173.82 22.36Q173.41 22.38 172.98 22.41Q172.55 22.45 171.95 22.45ZM204.33 22.71L204.33 22.71Q204.13 22.71 203.55 22.38Q202.96 22.05 202.43 21.32L202.43 21.32Q202.34 21.21 201.88 20.65Q201.43 20.10 200.73 19.26Q200.03 18.43 199.21 17.46Q198.39 16.48 197.57 15.50Q196.75 14.53 196.04 13.70Q195.33 12.87 194.85 12.30Q194.37 11.73 194.26 11.60L194.26 11.60Q194.11 11.40 194.00 11.32Q193.89 11.25 193.80 11.25L193.80 11.25Q193.69 11.25 193.64 11.41Q193.60 11.58 193.60 11.71L193.60 11.71Q193.58 12.80 193.55 14.22Q193.53 15.64 193.51 17.15Q193.49 18.65 193.49 20.03L193.49 20.03Q193.49 20.63 193.79 21.14Q194.09 21.65 194.91 21.80L194.91 21.80Q195.28 21.87 195.46 21.96Q195.64 22.05 195.64 22.20L195.64 22.20Q195.64 22.34 195.46 22.39Q195.28 22.45 195.00 22.45L195.00 22.45Q194.40 22.45 194.10 22.41Q193.80 22.38 193.56 22.36Q193.33 22.34 192.91 22.34L192.91 22.34Q192.51 22.34 192.29 22.36Q192.07 22.38 191.78 22.41Q191.49 22.45 190.89 22.45L190.89 22.45Q190.60 22.45 190.43 22.39Q190.25 22.34 190.25 22.20L190.25 22.20Q190.25 22.05 190.43 21.96Q190.60 21.87 190.98 21.78L190.98 21.78Q191.62 21.60 191.91 21.13Q192.20 20.65 192.27 19.96L192.27 19.96Q192.36 19.12 192.44 17.73Q192.53 16.35 192.60 14.63Q192.67 12.91 192.67 11.09L192.67 11.09Q192.67 9.92 192.06 9.40Q191.45 8.89 190.47 8.58L190.47 8.58Q190.38 8.54 190.08 8.40Q189.78 8.25 189.78 8.05L189.78 8.05Q189.78 7.85 189.98 7.80Q190.18 7.74 190.29 7.74L190.29 7.74Q190.94 7.76 191.34 7.77Q191.73 7.79 192.05 7.81Q192.36 7.83 192.73 7.84Q193.11 7.85 193.71 7.85L193.71 7.85Q193.91 7.85 194.02 7.96Q194.13 8.07 194.24 8.23L194.24 8.23Q194.33 8.36 194.83 8.97Q195.33 9.58 196.07 10.50Q196.81 11.42 197.70 12.50Q198.59 13.57 199.48 14.65Q200.36 15.73 201.12 16.65Q201.87 17.57 202.37 18.17Q202.87 18.77 202.96 18.88L202.96 18.88Q203.05 18.96 203.21 19.14Q203.38 19.32 203.51 19.32L203.51 19.32Q203.71 19.32 203.73 18.85L203.73 18.85Q203.73 18.54 203.75 17.67Q203.76 16.79 203.77 15.54Q203.78 14.28 203.78 12.82Q203.78 11.36 203.78 9.83L203.78 9.83Q203.76 9.38 203.31 9.03Q202.87 8.67 202.49 8.61L202.49 8.61Q202.12 8.54 201.81 8.43Q201.49 8.32 201.49 8.16L201.49 8.16Q201.49 8.03 201.81 7.97Q202.12 7.92 202.40 7.92L202.40 7.92Q202.63 7.92 202.84 7.92Q203.05 7.92 203.26 7.92Q203.47 7.92 203.67 7.92L203.67 7.92Q204.20 7.92 204.51 7.91Q204.82 7.90 205.19 7.87Q205.55 7.85 206.22 7.85L206.22 7.85Q206.51 7.85 206.68 7.91Q206.86 7.96 206.86 8.10L206.86 8.10Q206.86 8.41 206.13 8.54L206.13 8.54Q205.31 8.70 205.04 8.94Q204.78 9.18 204.73 9.74L204.73 9.74Q204.73 9.85 204.72 10.60Q204.71 11.36 204.71 12.51Q204.71 13.66 204.70 14.99Q204.69 16.33 204.69 17.65Q204.69 18.96 204.69 20.01L204.69 20.01Q204.69 20.54 204.72 20.97Q204.76 21.40 204.78 21.70Q204.80 22.00 204.80 22.16L204.80 22.16Q204.80 22.51 204.66 22.61Q204.51 22.71 204.33 22.71ZM226.87 22.65L226.87 22.65Q225.34 22.65 223.95 22.10Q222.57 21.56 221.49 20.58Q220.42 19.61 219.79 18.29Q219.17 16.97 219.17 15.44L219.17 15.44Q219.17 13.80 219.82 12.38Q220.46 10.96 221.59 9.89Q222.72 8.83 224.20 8.23Q225.67 7.63 227.34 7.63L227.34 7.63Q227.71 7.63 228.37 7.71Q229.02 7.79 229.72 7.90Q230.42 8.01 230.98 8.13Q231.55 8.25 231.77 8.36L231.77 8.36Q231.88 8.41 231.92 8.46Q231.95 8.52 231.97 8.63L231.97 8.63Q232.06 9.27 232.13 9.90Q232.19 10.54 232.19 10.98L232.19 10.98Q232.19 11.13 232.09 11.28Q231.99 11.42 231.86 11.42L231.86 11.42Q231.64 11.42 231.53 11.22Q231.42 11.02 231.35 10.82L231.35 10.82Q231.22 10.47 231.07 10.21Q230.93 9.96 230.66 9.65L230.66 9.65Q230.53 9.47 230.10 9.19Q229.66 8.92 228.93 8.70Q228.20 8.47 227.14 8.47L227.14 8.47Q225.85 8.47 224.78 9.02Q223.72 9.56 222.95 10.50Q222.19 11.45 221.78 12.64Q221.37 13.84 221.37 15.15L221.37 15.15Q221.37 16.72 221.86 17.97Q222.34 19.21 223.17 20.07Q223.99 20.94 225.03 21.38Q226.07 21.83 227.18 21.83L227.18 21.83Q228.47 21.83 229.08 21.52Q229.69 21.21 229.89 21.01L229.89 21.01Q230.13 20.76 230.34 20.32Q230.55 19.87 230.55 19.30L230.55 19.30Q230.55 19.10 230.56 18.88Q230.57 18.65 230.59 18.43Q230.60 18.21 230.60 18.01L230.60 18.01Q230.60 17.77 230.57 17.60Q230.55 17.43 230.49 17.35L230.49 17.35Q230.31 17.10 229.86 16.95Q229.42 16.79 228.98 16.72Q228.53 16.66 228.31 16.66L228.31 16.66Q228.22 16.66 228.05 16.55Q227.87 16.44 227.87 16.28L227.87 16.28Q227.87 16.10 228.05 16.00Q228.22 15.90 228.31 15.90L228.31 15.90Q228.87 15.90 229.27 15.93Q229.66 15.95 230.09 15.97Q230.51 15.99 231.11 15.99L231.11 15.99Q231.68 15.99 232.08 15.95Q232.48 15.90 233.08 15.90L233.08 15.90Q233.17 15.90 233.36 15.97Q233.55 16.04 233.55 16.26L233.55 16.26Q233.55 16.41 233.36 16.53Q233.17 16.64 233.08 16.66L233.08 16.66Q232.59 16.79 232.40 17.05Q232.22 17.30 232.15 17.75L232.15 17.75Q232.08 18.23 232.06 18.61Q232.04 18.99 232.04 19.41L232.04 19.41L232.04 20.01Q232.04 20.12 232.08 20.18Q232.13 20.25 232.17 20.36L232.17 20.36Q232.24 20.47 232.35 20.56Q232.46 20.65 232.46 20.74L232.46 20.74Q232.46 20.83 232.43 20.97Q232.39 21.12 232.15 21.16L232.15 21.16Q231.99 21.18 231.54 21.42Q231.08 21.65 230.40 21.94Q229.71 22.23 228.82 22.44Q227.93 22.65 226.87 22.65ZM262.03 22.45L262.03 22.45Q261.74 22.45 261.56 22.39Q261.38 22.34 261.38 22.20L261.38 22.20Q261.38 21.94 262.12 21.80L262.12 21.80Q262.96 21.65 263.40 21.29Q263.85 20.94 263.85 20.14L263.85 20.14L263.85 10.16Q263.85 9.36 263.51 8.98Q263.18 8.61 262.36 8.54L262.36 8.54Q261.98 8.50 261.81 8.37Q261.63 8.25 261.63 8.10L261.63 8.10Q261.63 7.96 261.81 7.91Q261.98 7.85 262.27 7.85L262.27 7.85Q262.87 7.85 263.20 7.85Q263.54 7.85 263.83 7.86Q264.13 7.87 264.58 7.87L264.58 7.87Q265.00 7.87 265.31 7.84Q265.62 7.81 266.01 7.79Q266.40 7.76 267.04 7.76L267.04 7.76Q269.64 7.76 270.91 8.51Q272.19 9.25 272.19 11.07L272.19 11.07Q272.19 11.82 271.93 12.39Q271.68 12.95 271.43 13.20L271.43 13.20Q271.08 13.55 270.79 13.74Q270.50 13.93 269.95 14.15L269.95 14.15Q269.86 14.17 269.86 14.25Q269.86 14.33 269.95 14.37L269.95 14.37Q270.46 14.53 271.00 14.77Q271.54 15.02 272.02 15.40Q272.50 15.79 272.80 16.43Q273.10 17.06 273.10 18.03L273.10 18.03Q273.10 19.25 272.71 19.96Q272.32 20.67 271.79 21.05Q271.25 21.43 270.79 21.67L270.79 21.67Q270.10 22.03 269.19 22.23Q268.28 22.43 267.02 22.43L267.02 22.43Q266.73 22.43 266.15 22.38Q265.58 22.34 264.91 22.34L264.91 22.34Q264.33 22.34 263.93 22.36Q263.54 22.38 263.10 22.41Q262.67 22.45 262.03 22.45ZM267.33 21.52L267.33 21.52Q268.30 21.52 269.15 21.07Q269.99 20.63 270.50 19.86Q271.01 19.10 271.01 18.14L271.01 18.14Q271.01 17.28 270.72 16.71Q270.43 16.15 270.06 15.79Q269.68 15.44 269.37 15.28L269.37 15.28Q269.08 15.11 268.46 14.92Q267.84 14.73 266.84 14.73L266.84 14.73Q266.13 14.73 265.85 15.02Q265.58 15.31 265.58 15.53L265.58 15.53L265.58 19.94Q265.58 20.87 266.03 21.19Q266.49 21.52 267.33 21.52ZM266.60 14.11L266.60 14.11Q267.20 14.11 267.89 13.97Q268.59 13.84 269.28 13.46L269.28 13.46Q269.52 13.33 269.90 12.82Q270.28 12.31 270.28 11.36L270.28 11.36Q270.28 10.71 270.03 10.04Q269.79 9.36 269.10 8.89Q268.42 8.43 267.04 8.43L267.04 8.43Q266.13 8.43 265.85 8.67Q265.58 8.92 265.58 9.43L265.58 9.43L265.58 13.29Q265.58 13.86 265.95 13.99Q266.33 14.11 266.60 14.11ZM299.20 22.80L299.20 22.80Q298.58 22.80 298.03 22.70Q297.47 22.60 297.01 22.34Q296.54 22.07 296.14 21.60L296.14 21.60Q295.61 20.94 295.12 20.33Q294.63 19.72 294.09 18.92Q293.55 18.12 292.77 16.88L292.77 16.88Q292.44 16.33 291.82 16.01L291.82 16.01Q291.33 15.77 290.85 15.67Q290.37 15.57 290.06 15.55L290.06 15.55Q289.89 15.53 289.81 15.66Q289.73 15.79 289.73 15.99L289.73 15.99L289.73 19.90Q289.73 20.61 290.06 21.13Q290.40 21.65 291.22 21.80L291.22 21.80Q291.59 21.87 291.77 21.96Q291.95 22.05 291.95 22.20L291.95 22.20Q291.95 22.34 291.77 22.39Q291.59 22.45 291.31 22.45L291.31 22.45Q290.71 22.45 290.39 22.40Q290.06 22.36 289.81 22.33Q289.55 22.29 289.13 22.29L289.13 22.29Q288.58 22.29 288.15 22.33Q287.71 22.36 287.28 22.40Q286.85 22.45 286.25 22.45L286.25 22.45Q285.96 22.45 285.78 22.39Q285.61 22.34 285.61 22.20L285.61 22.20Q285.61 21.94 286.34 21.80L286.34 21.80Q287.18 21.65 287.57 21.29Q287.96 20.94 287.96 20.12L287.96 20.12L287.96 10.67Q287.96 9.83 287.88 9.39Q287.80 8.96 287.52 8.78Q287.25 8.61 286.60 8.54L286.60 8.54Q286.23 8.50 286.05 8.37Q285.87 8.25 285.87 8.10L285.87 8.10Q285.87 7.96 286.05 7.91Q286.23 7.85 286.52 7.85L286.52 7.85Q287.11 7.85 287.41 7.85Q287.71 7.85 287.98 7.86Q288.25 7.87 288.69 7.87L288.69 7.87Q289.11 7.87 289.44 7.84Q289.78 7.81 290.19 7.79Q290.60 7.76 291.24 7.76L291.24 7.76Q293.68 7.76 294.96 8.67Q296.23 9.58 296.23 11.40L296.23 11.40Q296.23 12.40 295.83 13.12Q295.43 13.84 294.83 14.33Q294.23 14.82 293.61 15.13L293.61 15.13Q293.52 15.15 293.54 15.23Q293.55 15.31 293.61 15.42L293.61 15.42Q294.30 16.46 294.93 17.39Q295.57 18.32 296.32 19.21Q297.07 20.10 298.12 21.05L298.12 21.05Q298.69 21.56 299.29 21.67Q299.89 21.78 300.67 21.78L300.67 21.78Q301.00 21.78 301.00 22.03L301.00 22.03Q301.00 22.36 300.67 22.53Q300.33 22.69 299.91 22.75Q299.49 22.80 299.20 22.80ZM290.91 15.04L290.91 15.04Q291.93 15.04 292.67 14.57Q293.41 14.11 293.82 13.35Q294.23 12.60 294.23 11.76L294.23 11.76Q294.23 10.85 294.00 10.09Q293.77 9.34 293.07 8.88Q292.37 8.43 290.97 8.43L290.97 8.43Q290.26 8.43 290.04 8.88Q289.82 9.34 289.78 10.49L289.78 10.49Q289.75 11.05 289.74 11.99Q289.73 12.93 289.73 14.26L289.73 14.26Q289.73 14.82 290.04 14.93Q290.35 15.04 290.91 15.04ZM313.44 22.45L313.44 22.45Q313.15 22.45 312.98 22.39Q312.80 22.34 312.80 22.20L312.80 22.20Q312.80 21.94 313.53 21.80L313.53 21.80Q314.37 21.65 314.77 21.29Q315.17 20.94 315.17 20.14L315.17 20.14L315.17 10.16Q315.17 9.36 314.85 9.03Q314.53 8.70 313.69 8.54L313.69 8.54Q313.31 8.47 313.13 8.36Q312.96 8.25 312.96 8.10L312.96 8.10Q312.96 7.96 313.13 7.91Q313.31 7.85 313.60 7.85L313.60 7.85Q314.44 7.85 315.03 7.87Q315.62 7.90 316.18 7.91Q316.75 7.92 317.52 7.92L317.52 7.92Q318.26 7.92 319.07 7.91Q319.88 7.90 320.56 7.90L320.56 7.90Q321.32 7.87 321.84 7.86Q322.36 7.85 322.45 7.85L322.45 7.85Q322.56 7.85 322.69 7.90Q322.83 7.94 322.85 8.05L322.85 8.05Q322.96 8.67 323.07 9.28Q323.18 9.89 323.18 10.34L323.18 10.34Q323.18 10.54 323.08 10.60Q322.98 10.67 322.87 10.67L322.87 10.67Q322.76 10.67 322.72 10.61Q322.67 10.56 322.63 10.45L322.63 10.45Q322.52 10.07 322.40 9.73Q322.29 9.38 322.14 9.23L322.14 9.23Q321.83 8.87 321.45 8.75Q321.07 8.63 320.65 8.63L320.65 8.63L317.75 8.63Q317.57 8.63 317.26 8.83Q316.95 9.03 316.95 9.34L316.95 9.34L316.95 14.04Q316.95 14.24 317.07 14.38Q317.19 14.53 317.35 14.53L317.35 14.53L319.54 14.53Q320.19 14.53 320.43 14.30Q320.67 14.06 320.83 13.44L320.83 13.44Q320.96 12.95 321.23 12.95L321.23 12.95Q321.32 12.95 321.42 13.04Q321.52 13.13 321.52 13.31L321.52 13.31Q321.52 13.40 321.51 13.71Q321.50 14.02 321.47 14.35Q321.45 14.68 321.45 14.86L321.45 14.86Q321.45 15.08 321.46 15.45Q321.47 15.82 321.48 16.15Q321.50 16.48 321.50 16.57L321.50 16.57Q321.50 16.72 321.46 16.84Q321.43 16.95 321.30 16.95L321.30 16.95Q320.96 16.95 320.79 16.24L320.79 16.24Q320.65 15.73 320.43 15.48Q320.21 15.24 319.77 15.24L319.77 15.24L317.70 15.24Q317.33 15.24 317.14 15.34Q316.95 15.44 316.95 15.82L316.95 15.82L316.95 20.07Q316.95 20.92 317.30 21.24Q317.66 21.56 318.41 21.56L318.41 21.56L320.05 21.56Q320.76 21.56 321.24 21.48Q321.72 21.40 322.07 21.18L322.07 21.18Q322.43 20.94 322.70 20.54Q322.98 20.14 323.34 19.48L323.34 19.48Q323.40 19.34 323.49 19.25Q323.58 19.16 323.69 19.19L323.69 19.19Q323.80 19.21 323.87 19.29Q323.94 19.36 323.94 19.50L323.94 19.50Q323.94 19.70 323.82 20.20Q323.71 20.70 323.55 21.23Q323.38 21.76 323.25 22.07L323.25 22.07Q323.18 22.23 323.13 22.34Q323.07 22.45 322.94 22.45L322.94 22.45Q321.87 22.45 320.96 22.43Q320.05 22.40 319.23 22.38Q318.41 22.36 317.62 22.34Q316.84 22.31 315.99 22.31L315.99 22.31Q315.51 22.31 315.15 22.35Q314.80 22.38 314.42 22.41Q314.04 22.45 313.44 22.45ZM337.04 22.45L337.04 22.45Q336.76 22.45 336.58 22.39Q336.40 22.34 336.40 22.20L336.40 22.20Q336.40 21.94 337.13 21.80L337.13 21.80Q337.98 21.65 338.38 21.29Q338.77 20.94 338.77 20.14L338.77 20.14L338.77 10.16Q338.77 9.36 338.45 9.03Q338.13 8.70 337.29 8.54L337.29 8.54Q336.91 8.47 336.73 8.36Q336.56 8.25 336.56 8.10L336.56 8.10Q336.56 7.96 336.73 7.91Q336.91 7.85 337.20 7.85L337.20 7.85Q338.04 7.85 338.63 7.87Q339.22 7.90 339.78 7.91Q340.35 7.92 341.13 7.92L341.13 7.92Q341.86 7.92 342.67 7.91Q343.48 7.90 344.16 7.90L344.16 7.90Q344.92 7.87 345.44 7.86Q345.96 7.85 346.05 7.85L346.05 7.85Q346.16 7.85 346.29 7.90Q346.43 7.94 346.45 8.05L346.45 8.05Q346.56 8.67 346.67 9.28Q346.78 9.89 346.78 10.34L346.78 10.34Q346.78 10.54 346.68 10.60Q346.58 10.67 346.47 10.67L346.47 10.67Q346.36 10.67 346.32 10.61Q346.27 10.56 346.23 10.45L346.23 10.45Q346.12 10.07 346.01 9.73Q345.89 9.38 345.74 9.23L345.74 9.23Q345.43 8.87 345.05 8.75Q344.67 8.63 344.25 8.63L344.25 8.63L341.35 8.63Q341.17 8.63 340.86 8.83Q340.55 9.03 340.55 9.34L340.55 9.34L340.55 14.04Q340.55 14.24 340.67 14.38Q340.79 14.53 340.95 14.53L340.95 14.53L343.14 14.53Q343.79 14.53 344.03 14.30Q344.28 14.06 344.43 13.44L344.43 13.44Q344.56 12.95 344.83 12.95L344.83 12.95Q344.92 12.95 345.02 13.04Q345.12 13.13 345.12 13.31L345.12 13.31Q345.12 13.40 345.11 13.71Q345.10 14.02 345.07 14.35Q345.05 14.68 345.05 14.86L345.05 14.86Q345.05 15.08 345.06 15.45Q345.07 15.82 345.08 16.15Q345.10 16.48 345.10 16.57L345.10 16.57Q345.10 16.72 345.06 16.84Q345.03 16.95 344.90 16.95L344.90 16.95Q344.56 16.95 344.39 16.24L344.39 16.24Q344.25 15.73 344.03 15.48Q343.81 15.24 343.37 15.24L343.37 15.24L341.30 15.24Q340.93 15.24 340.74 15.34Q340.55 15.44 340.55 15.82L340.55 15.82L340.55 20.07Q340.55 20.92 340.90 21.24Q341.26 21.56 342.01 21.56L342.01 21.56L343.65 21.56Q344.36 21.56 344.84 21.48Q345.32 21.40 345.67 21.18L345.67 21.18Q346.03 20.94 346.30 20.54Q346.58 20.14 346.94 19.48L346.94 19.48Q347.00 19.34 347.09 19.25Q347.18 19.16 347.29 19.19L347.29 19.19Q347.40 19.21 347.47 19.29Q347.54 19.36 347.54 19.50L347.54 19.50Q347.54 19.70 347.43 20.20Q347.31 20.70 347.15 21.23Q346.98 21.76 346.85 22.07L346.85 22.07Q346.78 22.23 346.73 22.34Q346.67 22.45 346.54 22.45L346.54 22.45Q345.47 22.45 344.56 22.43Q343.65 22.40 342.83 22.38Q342.01 22.36 341.23 22.34Q340.44 22.31 339.60 22.31L339.60 22.31Q339.11 22.31 338.75 22.35Q338.40 22.38 338.02 22.41Q337.64 22.45 337.04 22.45ZM371.00 22.45L371.00 22.45Q370.05 22.45 369.16 22.44Q368.28 22.43 367.44 22.41Q366.61 22.40 365.82 22.39Q365.04 22.38 364.30 22.38L364.30 22.38Q363.64 22.38 362.97 22.39Q362.31 22.40 361.67 22.40L361.67 22.40L359.96 22.40Q359.87 22.40 359.84 22.25Q359.80 22.09 359.80 22.09L359.80 22.09Q359.80 21.98 360.01 21.62Q360.22 21.25 360.53 20.81Q360.84 20.36 361.09 20.03L361.09 20.03Q362.22 18.48 363.17 17.18Q364.13 15.88 365.01 14.65Q365.90 13.42 366.82 12.10Q367.74 10.78 368.81 9.18L368.81 9.18Q368.85 9.14 368.87 9.09Q368.90 9.05 368.90 9.01L368.90 9.01Q368.90 8.94 368.81 8.89Q368.72 8.85 368.48 8.83L368.48 8.83Q367.88 8.81 367.00 8.79Q366.12 8.78 365.24 8.78L365.24 8.78Q364.59 8.78 363.99 8.78Q363.40 8.78 362.97 8.83L362.97 8.83Q362.44 8.87 361.78 9.26Q361.11 9.65 360.80 10.47L360.80 10.47Q360.71 10.67 360.57 10.92Q360.42 11.18 360.18 11.18L360.18 11.18Q360.09 11.18 360.04 11.10Q359.98 11.02 359.98 10.94L359.98 10.94Q359.98 10.80 360.04 10.64Q360.09 10.47 360.13 10.34L360.13 10.34Q360.22 10.09 360.35 9.66Q360.47 9.23 360.59 8.71Q360.71 8.18 360.73 7.72L360.73 7.72Q360.76 7.48 360.87 7.41Q360.98 7.34 361.07 7.34L361.07 7.34Q361.16 7.34 361.37 7.45Q361.58 7.56 361.75 7.65L361.75 7.65Q361.98 7.74 362.54 7.87Q363.11 8.01 363.66 8.01L363.66 8.01Q364.22 8.01 364.96 8.01Q365.70 8.01 366.46 8.01L366.46 8.01Q367.14 8.01 367.80 8.01Q368.45 8.01 369.09 8.00Q369.72 7.99 370.34 7.97Q370.96 7.96 371.58 7.94L371.58 7.94Q371.69 7.94 371.79 8.10Q371.89 8.25 371.82 8.34L371.82 8.34L370.47 10.14Q369.32 11.69 368.39 12.95Q367.45 14.22 366.61 15.40Q365.77 16.59 364.89 17.89Q364.02 19.19 362.97 20.78L362.97 20.78Q362.91 20.87 362.91 21.05L362.91 21.05Q362.91 21.18 362.97 21.29Q363.04 21.40 363.15 21.43L363.15 21.43Q363.64 21.47 364.28 21.50Q364.93 21.54 365.66 21.54L365.66 21.54Q366.41 21.54 367.21 21.50Q368.01 21.47 368.79 21.43L368.79 21.43Q370.69 21.27 371.54 19.01L371.54 19.01Q371.58 18.88 371.72 18.71Q371.87 18.54 372.02 18.54L372.02 18.54Q372.22 18.54 372.22 18.83L372.22 18.83Q372.22 18.92 372.13 19.35Q372.05 19.79 371.91 20.34Q371.78 20.89 371.64 21.38Q371.49 21.87 371.40 22.07L371.40 22.07Q371.34 22.20 371.26 22.33Q371.18 22.45 371.00 22.45ZM385.11 22.45L385.11 22.45Q384.82 22.45 384.65 22.39Q384.47 22.34 384.47 22.20L384.47 22.20Q384.47 21.94 385.20 21.80L385.20 21.80Q386.04 21.65 386.44 21.29Q386.84 20.94 386.84 20.14L386.84 20.14L386.84 10.16Q386.84 9.36 386.52 9.03Q386.20 8.70 385.35 8.54L385.35 8.54Q384.98 8.47 384.80 8.36Q384.62 8.25 384.62 8.10L384.62 8.10Q384.62 7.96 384.80 7.91Q384.98 7.85 385.27 7.85L385.27 7.85Q386.11 7.85 386.70 7.87Q387.28 7.90 387.85 7.91Q388.42 7.92 389.19 7.92L389.19 7.92Q389.92 7.92 390.73 7.91Q391.54 7.90 392.23 7.90L392.23 7.90Q392.99 7.87 393.51 7.86Q394.03 7.85 394.12 7.85L394.12 7.85Q394.23 7.85 394.36 7.90Q394.49 7.94 394.52 8.05L394.52 8.05Q394.63 8.67 394.74 9.28Q394.85 9.89 394.85 10.34L394.85 10.34Q394.85 10.54 394.75 10.60Q394.65 10.67 394.54 10.67L394.54 10.67Q394.43 10.67 394.38 10.61Q394.34 10.56 394.29 10.45L394.29 10.45Q394.18 10.07 394.07 9.73Q393.96 9.38 393.81 9.23L393.81 9.23Q393.50 8.87 393.12 8.75Q392.74 8.63 392.32 8.63L392.32 8.63L389.41 8.63Q389.24 8.63 388.93 8.83Q388.62 9.03 388.62 9.34L388.62 9.34L388.62 14.04Q388.62 14.24 388.74 14.38Q388.86 14.53 389.01 14.53L389.01 14.53L391.21 14.53Q391.85 14.53 392.10 14.30Q392.34 14.06 392.50 13.44L392.50 13.44Q392.63 12.95 392.90 12.95L392.90 12.95Q392.99 12.95 393.09 13.04Q393.18 13.13 393.18 13.31L393.18 13.31Q393.18 13.40 393.17 13.71Q393.16 14.02 393.14 14.35Q393.12 14.68 393.12 14.86L393.12 14.86Q393.12 15.08 393.13 15.45Q393.14 15.82 393.15 16.15Q393.16 16.48 393.16 16.57L393.16 16.57Q393.16 16.72 393.13 16.84Q393.10 16.95 392.96 16.95L392.96 16.95Q392.63 16.95 392.45 16.24L392.45 16.24Q392.32 15.73 392.10 15.48Q391.88 15.24 391.43 15.24L391.43 15.24L389.37 15.24Q388.99 15.24 388.80 15.34Q388.62 15.44 388.62 15.82L388.62 15.82L388.62 20.07Q388.62 20.92 388.97 21.24Q389.33 21.56 390.08 21.56L390.08 21.56L391.72 21.56Q392.43 21.56 392.91 21.48Q393.38 21.40 393.74 21.18L393.74 21.18Q394.09 20.94 394.37 20.54Q394.65 20.14 395.00 19.48L395.00 19.48Q395.07 19.34 395.16 19.25Q395.25 19.16 395.36 19.19L395.36 19.19Q395.47 19.21 395.54 19.29Q395.60 19.36 395.60 19.50L395.60 19.50Q395.60 19.70 395.49 20.20Q395.38 20.70 395.21 21.23Q395.05 21.76 394.92 22.07L394.92 22.07Q394.85 22.23 394.79 22.34Q394.74 22.45 394.60 22.45L394.60 22.45Q393.54 22.45 392.63 22.43Q391.72 22.40 390.90 22.38Q390.08 22.36 389.29 22.34Q388.50 22.31 387.66 22.31L387.66 22.31Q387.17 22.31 386.82 22.35Q386.46 22.38 386.09 22.41Q385.71 22.45 385.11 22.45Z" transform="translate(0, 0)"></path></g></svg></svg>
                </g>
            </svg>
        